<svg width="120" height="121" viewBox="0 0 120 121" fill="none" xmlns="http://www.w3.org/2000/svg">
<path d="M47.4142 18.6852L41.9487 23.5407V37.8199H47.2497L47.4142 18.6852Z" fill="white"/>
<path d="M47.4141 18.6852L51.5646 22.2662V37.7791H47.2904L47.4141 18.6852Z" fill="#575757"/>
<path d="M59.1845 39.1596C57.3835 38.3486 55.5455 37.9144 53.6654 37.894V6.43401L61.3171 0V40.3115C60.9447 40.0433 60.5607 39.8288 60.1653 39.6794V9.1108L59.2368 10.0405L59.1845 39.1596Z" fill="white"/>
<path d="M65.6626 45.0712C64.8157 43.4532 63.7991 42.0713 62.4688 41.1288V0.408661L69.4508 6.46976V39.5299C67.6001 40.8223 66.3705 42.701 65.6626 45.0712Z" fill="url(#paint0_linear_16_1259)"/>
<path d="M75.5045 37.8876C74.0785 38.0025 72.752 38.1481 71.604 38.6372V22.0886L75.5785 19.0019L75.5045 37.8863V37.8876Z" fill="white"/>
<path d="M75.5784 19.0032L80.9278 23.4654V37.894H75.5784V19.0032Z" fill="#575757"/>
<path d="M26.9283 39.2171L36.4231 46.8132H53.1232C53.1232 46.8132 57.6563 46.9563 57.6563 51.6381C57.6563 56.3199 54.3643 56.7976 53.1717 56.7976H39.7165V64.2022H53.2202C53.2202 64.2022 58.326 64.1549 58.326 69.3616C58.326 74.5683 52.9816 74.5696 52.9816 74.5696H28.6949V82.07H53.4587C53.4587 82.07 66.2085 81.8784 66.2085 69.6349C66.2085 69.6349 66.9407 63.4295 61.1372 60.27C61.1372 60.27 66.6588 57.4489 65.4764 49.8897C64.294 42.3306 58.3209 39.2273 52.3477 39.2273C46.3746 39.2273 26.9296 39.2171 26.9296 39.2171H26.9283Z" fill="white"/>
<path d="M28.737 43.4021L38.2037 51.0749V68.5647H28.6248L28.737 43.4021Z" fill="white"/>
<path d="M102.558 38.9846L96.6623 46.7711H75.3385V56.3161H94.4046L89.5131 64.1025H75.4648V85.453L67.5631 81.8107V46.5195C67.5631 46.5195 66.9355 39.2349 77.8487 39.2349L102.559 38.9834L102.558 38.9846Z" fill="url(#paint1_linear_16_1259)"/>
<path d="M35.5698 52.7683L30.353 59.5663L32.9997 59.6442L31.427 64.4831L36.7586 58.0695H33.7675L35.5698 52.7683Z" fill="url(#paint2_linear_16_1259)"/>
<path d="M105.41 54.2753C104.226 54.2753 103.263 55.2395 103.263 56.4246C103.263 57.0031 103.494 57.528 103.866 57.915L103.625 57.6736L97.4914 63.8152H93.031V64.326H97.7032L103.986 58.035L103.921 57.9699C104.308 58.3428 104.832 58.574 105.41 58.574C106.593 58.574 107.556 57.6098 107.556 56.4246C107.556 55.2395 106.593 54.2753 105.41 54.2753ZM105.41 58.0644C104.507 58.0644 103.773 57.3288 103.773 56.4259C103.773 55.523 104.508 54.7874 105.41 54.7874C106.311 54.7874 107.046 55.523 107.046 56.4259C107.046 57.3288 106.311 58.0644 105.41 58.0644Z" fill="url(#paint3_linear_16_1259)"/>
<path d="M18.8583 57.0108H14.3992V56.5H18.3481V42.0279H18.8583V57.0108Z" fill="white"/>
<mask id="mask0_16_1259" style="mask-type:luminance" maskUnits="userSpaceOnUse" x="14" y="42" width="5" height="16">
<path d="M18.8583 57.0108H14.3992V56.5H18.3481V42.0279H18.8583V57.0108Z" fill="white"/>
</mask>
<g mask="url(#mask0_16_1259)">
<path d="M14.4311 42.0279H14.3992V57.0108H14.4311V42.0279Z" fill="white"/>
<path d="M14.4629 42.0279H14.431V57.0108H14.4629V42.0279Z" fill="white"/>
<path d="M14.4947 42.0279H14.4628V57.0108H14.4947V42.0279Z" fill="white"/>
<path d="M14.5254 42.0279H14.4935V57.0108H14.5254V42.0279Z" fill="white"/>
<path d="M14.5573 42.0279H14.5254V57.0108H14.5573V42.0279Z" fill="white"/>
<path d="M14.5891 42.0279H14.5573V57.0108H14.5891V42.0279Z" fill="white"/>
<path d="M14.621 42.0279H14.5891V57.0108H14.621V42.0279Z" fill="white"/>
<path d="M14.6529 42.0279H14.621V57.0108H14.6529V42.0279Z" fill="white"/>
<path d="M14.6848 42.0279H14.653V57.0108H14.6848V42.0279Z" fill="white"/>
<path d="M14.7155 42.0279H14.6836V57.0108H14.7155V42.0279Z" fill="white"/>
<path d="M14.7473 42.0279H14.7155V57.0108H14.7473V42.0279Z" fill="white"/>
<path d="M14.7792 42.0279H14.7473V57.0108H14.7792V42.0279Z" fill="white"/>
<path d="M14.8112 42.0279H14.7793V57.0108H14.8112V42.0279Z" fill="white"/>
<path d="M14.843 42.0279H14.8112V57.0108H14.843V42.0279Z" fill="white"/>
<path d="M14.8749 42.0279H14.843V57.0108H14.8749V42.0279Z" fill="white"/>
<path d="M14.9068 42.0279H14.8749V57.0108H14.9068V42.0279Z" fill="white"/>
<path d="M14.9374 42.0279H14.9055V57.0108H14.9374V42.0279Z" fill="white"/>
<path d="M14.9693 42.0279H14.9374V57.0108H14.9693V42.0279Z" fill="white"/>
<path d="M15.0011 42.0279H14.9692V57.0108H15.0011V42.0279Z" fill="white"/>
<path d="M15.033 42.0279H15.0011V57.0108H15.033V42.0279Z" fill="white"/>
<path d="M15.065 42.0279H15.0331V57.0108H15.065V42.0279Z" fill="white"/>
<path d="M15.0967 42.0279H15.0648V57.0108H15.0967V42.0279Z" fill="white"/>
<path d="M15.1287 42.0279H15.0968V57.0108H15.1287V42.0279Z" fill="white"/>
<path d="M15.1593 42.0279H15.1274V57.0108H15.1593V42.0279Z" fill="white"/>
<path d="M15.1912 42.0279H15.1593V57.0108H15.1912V42.0279Z" fill="white"/>
<path d="M15.223 42.0279H15.1912V57.0108H15.223V42.0279Z" fill="white"/>
<path d="M15.255 42.0279H15.2231V57.0108H15.255V42.0279Z" fill="white"/>
<path d="M15.2869 42.0279H15.255V57.0108H15.2869V42.0279Z" fill="white"/>
<path d="M15.3188 42.0279H15.2869V57.0108H15.3188V42.0279Z" fill="white"/>
<path d="M15.3493 42.0279H15.3174V57.0108H15.3493V42.0279Z" fill="white"/>
<path d="M15.3813 42.0279H15.3494V57.0108H15.3813V42.0279Z" fill="white"/>
<path d="M15.4131 42.0279H15.3812V57.0108H15.4131V42.0279Z" fill="white"/>
<path d="M15.445 42.0279H15.4131V57.0108H15.445V42.0279Z" fill="white"/>
<path d="M15.477 42.0279H15.4451V57.0108H15.477V42.0279Z" fill="white"/>
<path d="M15.5088 42.0279H15.4769V57.0108H15.5088V42.0279Z" fill="white"/>
<path d="M15.5407 42.0279H15.5088V57.0108H15.5407V42.0279Z" fill="white"/>
<path d="M15.5713 42.0279H15.5394V57.0108H15.5713V42.0279Z" fill="white"/>
<path d="M15.6032 42.0279H15.5713V57.0108H15.6032V42.0279Z" fill="white"/>
<path d="M15.635 42.0279H15.6031V57.0108H15.635V42.0279Z" fill="white"/>
<path d="M15.6669 42.0279H15.635V57.0108H15.6669V42.0279Z" fill="white"/>
<path d="M15.6988 42.0279H15.6669V57.0108H15.6988V42.0279Z" fill="white"/>
<path d="M15.7307 42.0279H15.6989V57.0108H15.7307V42.0279Z" fill="white"/>
<path d="M15.7613 42.0279H15.7294V57.0108H15.7613V42.0279Z" fill="white"/>
<path d="M15.7931 42.0279H15.7612V57.0108H15.7931V42.0279Z" fill="white"/>
<path d="M15.8251 42.0279H15.7932V57.0108H15.8251V42.0279Z" fill="white"/>
<path d="M15.857 42.0279H15.8251V57.0108H15.857V42.0279Z" fill="white"/>
<path d="M15.8888 42.0279H15.8569V57.0108H15.8888V42.0279Z" fill="white"/>
<path d="M15.9207 42.0279H15.8888V57.0108H15.9207V42.0279Z" fill="white"/>
<path d="M15.9527 42.0279H15.9208V57.0108H15.9527V42.0279Z" fill="white"/>
<path d="M15.9833 42.0279H15.9514V57.0108H15.9833V42.0279Z" fill="white"/>
<path d="M16.015 42.0279H15.9832V57.0108H16.015V42.0279Z" fill="white"/>
<path d="M16.047 42.0279H16.0151V57.0108H16.047V42.0279Z" fill="white"/>
<path d="M16.0789 42.0279H16.047V57.0108H16.0789V42.0279Z" fill="white"/>
<path d="M16.1107 42.0279H16.0789V57.0108H16.1107V42.0279Z" fill="white"/>
<path d="M16.1426 42.0279H16.1107V57.0108H16.1426V42.0279Z" fill="white"/>
<path d="M16.1746 42.0279H16.1427V57.0108H16.1746V42.0279Z" fill="white"/>
<path d="M16.2051 42.0279H16.1732V57.0108H16.2051V42.0279Z" fill="white"/>
<path d="M16.2371 42.0279H16.2052V57.0108H16.2371V42.0279Z" fill="white"/>
<path d="M16.2688 42.0279H16.2369V57.0108H16.2688V42.0279Z" fill="white"/>
<path d="M16.3008 42.0279H16.2689V57.0108H16.3008V42.0279Z" fill="white"/>
<path d="M16.3327 42.0279H16.3008V57.0108H16.3327V42.0279Z" fill="white"/>
<path d="M16.3645 42.0279H16.3326V57.0108H16.3645V42.0279Z" fill="white"/>
<path d="M16.3953 42.0279H16.3634V57.0108H16.3953V42.0279Z" fill="white"/>
<path d="M16.4272 42.0279H16.3953V57.0108H16.4272V42.0279Z" fill="white"/>
<path d="M16.459 42.0279H16.4271V57.0108H16.459V42.0279Z" fill="white"/>
<path d="M16.4909 42.0279H16.459V57.0108H16.4909V42.0279Z" fill="white"/>
<path d="M16.5227 42.0279H16.4908V57.0108H16.5227V42.0279Z" fill="white"/>
<path d="M16.5547 42.0279H16.5228V57.0108H16.5547V42.0279Z" fill="white"/>
<path d="M16.5866 42.0279H16.5547V57.0108H16.5866V42.0279Z" fill="white"/>
<path d="M16.6172 42.0279H16.5853V57.0108H16.6172V42.0279Z" fill="white"/>
<path d="M16.6491 42.0279H16.6172V57.0108H16.6491V42.0279Z" fill="white"/>
<path d="M16.6811 42.0279H16.6492V57.0108H16.6811V42.0279Z" fill="white"/>
<path d="M16.7128 42.0279H16.6809V57.0108H16.7128V42.0279Z" fill="white"/>
<path d="M16.7448 42.0279H16.7129V57.0108H16.7448V42.0279Z" fill="white"/>
<path d="M16.7765 42.0279H16.7446V57.0108H16.7765V42.0279Z" fill="white"/>
<path d="M16.8073 42.0279H16.7754V57.0108H16.8073V42.0279Z" fill="white"/>
<path d="M16.8289 42.0279H16.8073V57.0108H16.8289V42.0279Z" fill="white"/>
<path d="M16.8505 42.0279H16.8289V57.0108H16.8505V42.0279Z" fill="white"/>
<path d="M16.8735 42.0279H16.8518V57.0108H16.8735V42.0279Z" fill="white"/>
<path d="M16.8952 42.0279H16.8735V57.0108H16.8952V42.0279Z" fill="white"/>
<path d="M16.9169 42.0279H16.8953V57.0108H16.9169V42.0279Z" fill="white"/>
<path d="M16.9386 42.0279H16.9169V57.0108H16.9386V42.0279Z" fill="white"/>
<path d="M16.9603 42.0279H16.9386V57.0108H16.9603V42.0279Z" fill="white"/>
<path d="M16.982 42.0279H16.9603V57.0108H16.982V42.0279Z" fill="white"/>
<path d="M17.005 42.0279H16.9833V57.0108H17.005V42.0279Z" fill="white"/>
<path d="M17.0266 42.0279H17.0049V57.0108H17.0266V42.0279Z" fill="white"/>
<path d="M17.0483 42.0279H17.0266V57.0108H17.0483V42.0279Z" fill="white"/>
<path d="M17.07 42.0279H17.0483V57.0108H17.07V42.0279Z" fill="white"/>
<path d="M17.0916 42.0279H17.0699V57.0108H17.0916V42.0279Z" fill="white"/>
<path d="M17.1134 42.0279H17.0917V57.0108H17.1134V42.0279Z" fill="white"/>
<path d="M17.1363 42.0279H17.1146V57.0108H17.1363V42.0279Z" fill="white"/>
<path d="M17.158 42.0279H17.1364V57.0108H17.158V42.0279Z" fill="white"/>
<path d="M17.1798 42.0279H17.1581V57.0108H17.1798V42.0279Z" fill="white"/>
<path d="M17.2014 42.0279H17.1797V57.0108H17.2014V42.0279Z" fill="white"/>
<path d="M17.223 42.0279H17.2013V57.0108H17.223V42.0279Z" fill="white"/>
<path d="M17.2447 42.0279H17.223V57.0108H17.2447V42.0279Z" fill="white"/>
<path d="M17.2677 42.0279H17.246V57.0108H17.2677V42.0279Z" fill="white"/>
<path d="M17.2894 42.0279H17.2677V57.0108H17.2894V42.0279Z" fill="white"/>
<path d="M17.311 42.0279H17.2893V57.0108H17.311V42.0279Z" fill="white"/>
<path d="M17.3327 42.0279H17.311V57.0108H17.3327V42.0279Z" fill="white"/>
<path d="M17.3544 42.0279H17.3328V57.0108H17.3544V42.0279Z" fill="white"/>
<path d="M17.3762 42.0279H17.3545V57.0108H17.3762V42.0279Z" fill="white"/>
<path d="M17.399 42.0279H17.3773V57.0108H17.399V42.0279Z" fill="white"/>
<path d="M17.4207 42.0279H17.399V57.0108H17.4207V42.0279Z" fill="white"/>
<path d="M17.4425 42.0279H17.4208V57.0108H17.4425V42.0279Z" fill="white"/>
<path d="M17.4641 42.0279H17.4424V57.0108H17.4641V42.0279Z" fill="white"/>
<path d="M17.4858 42.0279H17.4641V57.0108H17.4858V42.0279Z" fill="white"/>
<path d="M17.5075 42.0279H17.4858V57.0108H17.5075V42.0279Z" fill="white"/>
<path d="M17.5291 42.0279H17.5074V57.0108H17.5291V42.0279Z" fill="white"/>
<path d="M17.5521 42.0279H17.5304V57.0108H17.5521V42.0279Z" fill="white"/>
<path d="M17.5738 42.0279H17.5521V57.0108H17.5738V42.0279Z" fill="white"/>
<path d="M17.5955 42.0279H17.5739V57.0108H17.5955V42.0279Z" fill="white"/>
<path d="M17.6171 42.0279H17.5955V57.0108H17.6171V42.0279Z" fill="white"/>
<path d="M17.6389 42.0279H17.6172V57.0108H17.6389V42.0279Z" fill="white"/>
<path d="M17.6605 42.0279H17.6388V57.0108H17.6605V42.0279Z" fill="white"/>
<path d="M17.6835 42.0279H17.6619V57.0108H17.6835V42.0279Z" fill="white"/>
<path d="M17.7052 42.0279H17.6835V57.0108H17.7052V42.0279Z" fill="white"/>
<path d="M17.7269 42.0279H17.7052V57.0108H17.7269V42.0279Z" fill="white"/>
<path d="M17.7485 42.0279H17.7268V57.0108H17.7485V42.0279Z" fill="white"/>
<path d="M17.7702 42.0279H17.7485V57.0108H17.7702V42.0279Z" fill="white"/>
<path d="M17.7918 42.0279H17.7701V57.0108H17.7918V42.0279Z" fill="white"/>
<path d="M17.8149 42.0279H17.7932V57.0108H17.8149V42.0279Z" fill="white"/>
<path d="M17.8366 42.0279H17.8149V57.0108H17.8366V42.0279Z" fill="white"/>
<path d="M17.8582 42.0279H17.8365V57.0108H17.8582V42.0279Z" fill="white"/>
<path d="M17.88 42.0279H17.8583V57.0108H17.88V42.0279Z" fill="white"/>
<path d="M17.9016 42.0279H17.8799V57.0108H17.9016V42.0279Z" fill="white"/>
<path d="M17.9233 42.0279H17.9016V57.0108H17.9233V42.0279Z" fill="white"/>
<path d="M17.9462 42.0279H17.9246V57.0108H17.9462V42.0279Z" fill="white"/>
<path d="M17.9679 42.0279H17.9462V57.0108H17.9679V42.0279Z" fill="white"/>
<path d="M17.9896 42.0279H17.9679V57.0108H17.9896V42.0279Z" fill="white"/>
<path d="M18.0113 42.0279H17.9896V57.0108H18.0113V42.0279Z" fill="white"/>
<path d="M18.0329 42.0279H18.0112V57.0108H18.0329V42.0279Z" fill="white"/>
<path d="M18.0546 42.0279H18.033V57.0108H18.0546V42.0279Z" fill="white"/>
<path d="M18.0776 42.0279H18.0559V57.0108H18.0776V42.0279Z" fill="white"/>
<path d="M18.0993 42.0279H18.0776V57.0108H18.0993V42.0279Z" fill="white"/>
<path d="M18.121 42.0279H18.0994V57.0108H18.121V42.0279Z" fill="white"/>
<path d="M18.1427 42.0279H18.121V57.0108H18.1427V42.0279Z" fill="white"/>
<path d="M18.1643 42.0279H18.1426V57.0108H18.1643V42.0279Z" fill="white"/>
<path d="M18.1861 42.0279H18.1644V57.0108H18.1861V42.0279Z" fill="white"/>
<path d="M18.2089 42.0279H18.1873V57.0108H18.2089V42.0279Z" fill="white"/>
<path d="M18.2307 42.0279H18.209V57.0108H18.2307V42.0279Z" fill="white"/>
<path d="M18.2524 42.0279H18.2307V57.0108H18.2524V42.0279Z" fill="white"/>
<path d="M18.2741 42.0279H18.2524V57.0108H18.2741V42.0279Z" fill="white"/>
<path d="M18.2957 42.0279H18.274V57.0108H18.2957V42.0279Z" fill="white"/>
<path d="M18.3175 42.0279H18.2958V57.0108H18.3175V42.0279Z" fill="white"/>
<path d="M18.3391 42.0279H18.3174V57.0108H18.3391V42.0279Z" fill="white"/>
<path d="M18.362 42.0279H18.3403V57.0108H18.362V42.0279Z" fill="white"/>
<path d="M18.3837 42.0279H18.3621V57.0108H18.3837V42.0279Z" fill="white"/>
<path d="M18.4054 42.0279H18.3837V57.0108H18.4054V42.0279Z" fill="white"/>
<path d="M18.4271 42.0279H18.4054V57.0108H18.4271V42.0279Z" fill="white"/>
<path d="M18.4488 42.0279H18.4271V57.0108H18.4488V42.0279Z" fill="white"/>
<path d="M18.4704 42.0279H18.4487V57.0108H18.4704V42.0279Z" fill="white"/>
<path d="M18.4935 42.0279H18.4718V57.0108H18.4935V42.0279Z" fill="white"/>
<path d="M18.5152 42.0279H18.4935V57.0108H18.5152V42.0279Z" fill="white"/>
<path d="M18.5368 42.0279H18.5151V57.0108H18.5368V42.0279Z" fill="white"/>
<path d="M18.5585 42.0279H18.5369V57.0108H18.5585V42.0279Z" fill="white"/>
<path d="M18.5802 42.0279H18.5585V57.0108H18.5802V42.0279Z" fill="white"/>
<path d="M18.6019 42.0279H18.5802V57.0108H18.6019V42.0279Z" fill="white"/>
<path d="M18.6248 42.0279H18.6031V57.0108H18.6248V42.0279Z" fill="white"/>
<path d="M18.6464 42.0279H18.6248V57.0108H18.6464V42.0279Z" fill="white"/>
<path d="M18.6682 42.0279H18.6465V57.0108H18.6682V42.0279Z" fill="white"/>
<path d="M18.6899 42.0279H18.6682V57.0108H18.6899V42.0279Z" fill="white"/>
<path d="M18.7116 42.0279H18.6899V57.0108H18.7116V42.0279Z" fill="white"/>
<path d="M18.7332 42.0279H18.7115V57.0108H18.7332V42.0279Z" fill="white"/>
<path d="M18.7562 42.0279H18.7345V57.0108H18.7562V42.0279Z" fill="white"/>
<path d="M18.7779 42.0279H18.7562V57.0108H18.7779V42.0279Z" fill="white"/>
<path d="M18.7995 42.0279H18.7778V57.0108H18.7995V42.0279Z" fill="white"/>
<path d="M18.8212 42.0279H18.7996V57.0108H18.8212V42.0279Z" fill="white"/>
<path d="M18.8429 42.0279H18.8212V57.0108H18.8429V42.0279Z" fill="white"/>
<path d="M18.8582 42.0279H18.8429V57.0108H18.8582V42.0279Z" fill="white"/>
</g>
<path d="M22.1873 43.0815H21.6771V55.5204H22.1873V43.0815Z" fill="white"/>
<mask id="mask1_16_1259" style="mask-type:luminance" maskUnits="userSpaceOnUse" x="21" y="43" width="2" height="13">
<path d="M22.1873 43.0815H21.6771V55.5204H22.1873V43.0815Z" fill="white"/>
</mask>
<g mask="url(#mask1_16_1259)">
<path d="M21.681 43.0815H21.6771V55.5204H21.681V43.0815Z" fill="white"/>
<path d="M21.6847 43.0815H21.6809V55.5204H21.6847V43.0815Z" fill="white"/>
<path d="M21.6888 43.0815H21.6849V55.5204H21.6888V43.0815Z" fill="white"/>
<path d="M21.6913 43.0815H21.6875V55.5204H21.6913V43.0815Z" fill="white"/>
<path d="M21.6954 43.0815H21.6915V55.5204H21.6954V43.0815Z" fill="white"/>
<path d="M21.699 43.0815H21.6952V55.5204H21.699V43.0815Z" fill="white"/>
<path d="M21.7027 43.0816H21.6989V55.5205H21.7027V43.0816Z" fill="white"/>
<path d="M21.7066 43.0816H21.7028V55.5205H21.7066V43.0816Z" fill="white"/>
<path d="M21.7104 43.0816H21.7065V55.5205H21.7104V43.0816Z" fill="white"/>
<path d="M21.7142 43.0816H21.7103V55.5205H21.7142V43.0816Z" fill="white"/>
<path d="M21.7167 43.0816H21.7129V55.5205H21.7167V43.0816Z" fill="white"/>
<path d="M21.7205 43.0816H21.7167V55.5205H21.7205V43.0816Z" fill="white"/>
<path d="M21.7243 43.0816H21.7205V55.5205H21.7243V43.0816Z" fill="white"/>
<path d="M21.7281 43.0816H21.7242V55.5205H21.7281V43.0816Z" fill="white"/>
<path d="M21.732 43.0816H21.7281V55.5205H21.732V43.0816Z" fill="white"/>
<path d="M21.7358 43.0816H21.7319V55.5205H21.7358V43.0816Z" fill="white"/>
<path d="M21.7384 43.0816H21.7346V55.5205H21.7384V43.0816Z" fill="white"/>
<path d="M21.7422 43.0816H21.7384V55.5205H21.7422V43.0816Z" fill="white"/>
<path d="M21.746 43.0816H21.7422V55.5205H21.746V43.0816Z" fill="white"/>
<path d="M21.7499 43.0816H21.7461V55.5205H21.7499V43.0816Z" fill="white"/>
<path d="M21.7537 43.0816H21.7499V55.5205H21.7537V43.0816Z" fill="white"/>
<path d="M21.7575 43.0816H21.7537V55.5205H21.7575V43.0816Z" fill="white"/>
<path d="M21.7614 43.0816H21.7576V55.5205H21.7614V43.0816Z" fill="white"/>
<path d="M21.7638 43.0816H21.76V55.5205H21.7638V43.0816Z" fill="white"/>
<path d="M21.7677 43.0816H21.7639V55.5205H21.7677V43.0816Z" fill="white"/>
<path d="M21.7715 43.0816H21.7677V55.5205H21.7715V43.0816Z" fill="white"/>
<path d="M21.7754 43.0816H21.7716V55.5205H21.7754V43.0816Z" fill="white"/>
<path d="M21.7792 43.0816H21.7754V55.5205H21.7792V43.0816Z" fill="white"/>
<path d="M21.783 43.0816H21.7792V55.5205H21.783V43.0816Z" fill="white"/>
<path d="M21.7856 43.0816H21.7817V55.5205H21.7856V43.0816Z" fill="white"/>
<path d="M21.7895 43.0816H21.7856V55.5205H21.7895V43.0816Z" fill="white"/>
<path d="M21.7933 43.0816H21.7894V55.5205H21.7933V43.0816Z" fill="white"/>
<path d="M21.7972 43.0816H21.7933V55.5205H21.7972V43.0816Z" fill="white"/>
<path d="M21.8009 43.0816H21.7971V55.5205H21.8009V43.0816Z" fill="white"/>
<path d="M21.8047 43.0816H21.8009V55.5205H21.8047V43.0816Z" fill="white"/>
<path d="M21.8072 43.0816H21.8033V55.5205H21.8072V43.0816Z" fill="white"/>
<path d="M21.8111 43.0816H21.8073V55.5205H21.8111V43.0816Z" fill="white"/>
<path d="M21.8149 43.0816H21.811V55.5205H21.8149V43.0816Z" fill="white"/>
<path d="M21.8186 43.0816H21.8148V55.5205H21.8186V43.0816Z" fill="white"/>
<path d="M21.8224 43.0816H21.8186V55.5205H21.8224V43.0816Z" fill="white"/>
<path d="M21.8263 43.0816H21.8225V55.5205H21.8263V43.0816Z" fill="white"/>
<path d="M21.8302 43.0816H21.8264V55.5205H21.8302V43.0816Z" fill="white"/>
<path d="M21.8328 43.0816H21.829V55.5205H21.8328V43.0816Z" fill="white"/>
<path d="M21.8366 43.0816H21.8328V55.5205H21.8366V43.0816Z" fill="white"/>
<path d="M21.8405 43.0816H21.8367V55.5205H21.8405V43.0816Z" fill="white"/>
<path d="M21.8443 43.0816H21.8405V55.5205H21.8443V43.0816Z" fill="white"/>
<path d="M21.8481 43.0816H21.8442V55.5205H21.8481V43.0816Z" fill="white"/>
<path d="M21.8518 43.0816H21.848V55.5205H21.8518V43.0816Z" fill="white"/>
<path d="M21.8544 43.0816H21.8506V55.5205H21.8544V43.0816Z" fill="white"/>
<path d="M21.8582 43.0816H21.8544V55.5205H21.8582V43.0816Z" fill="white"/>
<path d="M21.8621 43.0816H21.8583V55.5205H21.8621V43.0816Z" fill="white"/>
<path d="M21.866 43.0816H21.8622V55.5205H21.866V43.0816Z" fill="white"/>
<path d="M21.8698 43.0816H21.866V55.5205H21.8698V43.0816Z" fill="white"/>
<path d="M21.8737 43.0816H21.8699V55.5205H21.8737V43.0816Z" fill="white"/>
<path d="M21.8761 43.0816H21.8723V55.5205H21.8761V43.0816Z" fill="white"/>
<path d="M21.88 43.0816H21.8762V55.5205H21.88V43.0816Z" fill="white"/>
<path d="M21.8838 43.0816H21.88V55.5205H21.8838V43.0816Z" fill="white"/>
<path d="M21.8876 43.0816H21.8838V55.5205H21.8876V43.0816Z" fill="white"/>
<path d="M21.8914 43.0816H21.8876V55.5205H21.8914V43.0816Z" fill="white"/>
<path d="M21.8953 43.0816H21.8915V55.5205H21.8953V43.0816Z" fill="white"/>
<path d="M21.8991 43.0816H21.8953V55.5205H21.8991V43.0816Z" fill="white"/>
<path d="M21.9017 43.0816H21.8978V55.5205H21.9017V43.0816Z" fill="white"/>
<path d="M21.9054 43.0816H21.9016V55.5205H21.9054V43.0816Z" fill="white"/>
<path d="M21.9093 43.0816H21.9055V55.5205H21.9093V43.0816Z" fill="white"/>
<path d="M21.9131 43.0816H21.9093V55.5205H21.9131V43.0816Z" fill="white"/>
<path d="M21.9169 43.0816H21.9131V55.5205H21.9169V43.0816Z" fill="white"/>
<path d="M21.9207 43.0816H21.9169V55.5205H21.9207V43.0816Z" fill="white"/>
<path d="M21.9234 43.0816H21.9196V55.5205H21.9234V43.0816Z" fill="white"/>
<path d="M21.9272 43.0816H21.9233V55.5205H21.9272V43.0816Z" fill="white"/>
<path d="M21.931 43.0816H21.9271V55.5205H21.931V43.0816Z" fill="white"/>
<path d="M21.9347 43.0816H21.9309V55.5205H21.9347V43.0816Z" fill="white"/>
<path d="M21.9386 43.0816H21.9348V55.5205H21.9386V43.0816Z" fill="white"/>
<path d="M21.9424 43.0816H21.9386V55.5205H21.9424V43.0816Z" fill="white"/>
<path d="M21.945 43.0816H21.9412V55.5205H21.945V43.0816Z" fill="white"/>
<path d="M21.9489 43.0816H21.9451V55.5205H21.9489V43.0816Z" fill="white"/>
<path d="M21.9527 43.0816H21.9489V55.5205H21.9527V43.0816Z" fill="white"/>
<path d="M21.9552 43.0816H21.9526V55.5205H21.9552V43.0816Z" fill="white"/>
<path d="M21.9578 43.0816H21.9552V55.5205H21.9578V43.0816Z" fill="white"/>
<path d="M21.9603 43.0816H21.9578V55.5205H21.9603V43.0816Z" fill="white"/>
<path d="M21.9629 43.0816H21.9603V55.5205H21.9629V43.0816Z" fill="white"/>
<path d="M21.9654 43.0816H21.9629V55.5205H21.9654V43.0816Z" fill="white"/>
<path d="M21.968 43.0816H21.9655V55.5205H21.968V43.0816Z" fill="white"/>
<path d="M21.9706 43.0816H21.968V55.5205H21.9706V43.0816Z" fill="white"/>
<path d="M21.9731 43.0816H21.9706V55.5205H21.9731V43.0816Z" fill="white"/>
<path d="M21.9757 43.0816H21.9731V55.5205H21.9757V43.0816Z" fill="white"/>
<path d="M21.9783 43.0816H21.9757V55.5205H21.9783V43.0816Z" fill="white"/>
<path d="M21.9807 43.0816H21.9781V55.5205H21.9807V43.0816Z" fill="white"/>
<path d="M21.9833 43.0816H21.9807V55.5205H21.9833V43.0816Z" fill="white"/>
<path d="M21.9858 43.0816H21.9833V55.5205H21.9858V43.0816Z" fill="white"/>
<path d="M21.9883 43.0816H21.9857V55.5205H21.9883V43.0816Z" fill="white"/>
<path d="M21.9896 43.0816H21.9871V55.5205H21.9896V43.0816Z" fill="white"/>
<path d="M21.9922 43.0816H21.9896V55.5205H21.9922V43.0816Z" fill="white"/>
<path d="M21.9947 43.0816H21.9922V55.5205H21.9947V43.0816Z" fill="white"/>
<path d="M21.9973 43.0816H21.9948V55.5205H21.9973V43.0816Z" fill="white"/>
<path d="M21.9999 43.0816H21.9973V55.5205H21.9999V43.0816Z" fill="white"/>
<path d="M22.0024 43.0816H21.9999V55.5205H22.0024V43.0816Z" fill="white"/>
<path d="M22.0049 43.0816H22.0023V55.5205H22.0049V43.0816Z" fill="white"/>
<path d="M22.0076 43.0816H22.005V55.5205H22.0076V43.0816Z" fill="white"/>
<path d="M22.0101 43.0816H22.0076V55.5205H22.0101V43.0816Z" fill="white"/>
<path d="M22.0126 43.0816H22.01V55.5205H22.0126V43.0816Z" fill="white"/>
<path d="M22.0151 43.0816H22.0126V55.5205H22.0151V43.0816Z" fill="white"/>
<path d="M22.0177 43.0816H22.0151V55.5205H22.0177V43.0816Z" fill="white"/>
<path d="M22.0203 43.0816H22.0177V55.5205H22.0203V43.0816Z" fill="white"/>
<path d="M22.0228 43.0816H22.0203V55.5205H22.0228V43.0816Z" fill="white"/>
<path d="M22.0254 43.0816H22.0228V55.5205H22.0254V43.0816Z" fill="white"/>
<path d="M22.0279 43.0816H22.0254V55.5205H22.0279V43.0816Z" fill="white"/>
<path d="M22.0305 43.0816H22.028V55.5205H22.0305V43.0816Z" fill="white"/>
<path d="M22.0331 43.0816H22.0305V55.5205H22.0331V43.0816Z" fill="white"/>
<path d="M22.0356 43.0816H22.0331V55.5205H22.0356V43.0816Z" fill="white"/>
<path d="M22.0382 43.0816H22.0356V55.5205H22.0382V43.0816Z" fill="white"/>
<path d="M22.0406 43.0816H22.0381V55.5205H22.0406V43.0816Z" fill="white"/>
<path d="M22.0433 43.0816H22.0408V55.5205H22.0433V43.0816Z" fill="white"/>
<path d="M22.0459 43.0816H22.0433V55.5205H22.0459V43.0816Z" fill="white"/>
<path d="M22.0483 43.0816H22.0458V55.5205H22.0483V43.0816Z" fill="white"/>
<path d="M22.0509 43.0816H22.0483V55.5205H22.0509V43.0816Z" fill="white"/>
<path d="M22.0535 43.0816H22.0509V55.5205H22.0535V43.0816Z" fill="white"/>
<path d="M22.056 43.0816H22.0535V55.5205H22.056V43.0816Z" fill="white"/>
<path d="M22.0586 43.0816H22.056V55.5205H22.0586V43.0816Z" fill="white"/>
<path d="M22.0598 43.0816H22.0573V55.5205H22.0598V43.0816Z" fill="white"/>
<path d="M22.0625 43.0816H22.0599V55.5205H22.0625V43.0816Z" fill="white"/>
<path d="M22.0649 43.0816H22.0624V55.5205H22.0649V43.0816Z" fill="white"/>
<path d="M22.0674 43.0816H22.0648V55.5205H22.0674V43.0816Z" fill="white"/>
<path d="M22.0701 43.0816H22.0675V55.5205H22.0701V43.0816Z" fill="white"/>
<path d="M22.0725 43.0816H22.0699V55.5205H22.0725V43.0816Z" fill="white"/>
<path d="M22.0751 43.0816H22.0725V55.5205H22.0751V43.0816Z" fill="white"/>
<path d="M22.0777 43.0816H22.0752V55.5205H22.0777V43.0816Z" fill="white"/>
<path d="M22.0802 43.0816H22.0776V55.5205H22.0802V43.0816Z" fill="white"/>
<path d="M22.0827 43.0816H22.0802V55.5205H22.0827V43.0816Z" fill="white"/>
<path d="M22.0853 43.0816H22.0828V55.5205H22.0853V43.0816Z" fill="white"/>
<path d="M22.0878 43.0816H22.0852V55.5205H22.0878V43.0816Z" fill="white"/>
<path d="M22.0904 43.0816H22.0879V55.5205H22.0904V43.0816Z" fill="white"/>
<path d="M22.093 43.0816H22.0905V55.5205H22.093V43.0816Z" fill="white"/>
<path d="M22.0954 43.0816H22.0929V55.5205H22.0954V43.0816Z" fill="white"/>
<path d="M22.0981 43.0816H22.0956V55.5205H22.0981V43.0816Z" fill="white"/>
<path d="M22.1006 43.0816H22.098V55.5205H22.1006V43.0816Z" fill="white"/>
<path d="M22.1031 43.0816H22.1006V55.5205H22.1031V43.0816Z" fill="white"/>
<path d="M22.1058 43.0816H22.1033V55.5205H22.1058V43.0816Z" fill="white"/>
<path d="M22.1083 43.0816H22.1057V55.5205H22.1083V43.0816Z" fill="white"/>
<path d="M22.1108 43.0816H22.1083V55.5205H22.1108V43.0816Z" fill="white"/>
<path d="M22.1134 43.0816H22.1108V55.5205H22.1134V43.0816Z" fill="white"/>
<path d="M22.1158 43.0816H22.1133V55.5205H22.1158V43.0816Z" fill="white"/>
<path d="M22.1184 43.0816H22.1158V55.5205H22.1184V43.0816Z" fill="white"/>
<path d="M22.1211 43.0816H22.1185V55.5205H22.1211V43.0816Z" fill="white"/>
<path d="M22.1235 43.0816H22.121V55.5205H22.1235V43.0816Z" fill="white"/>
<path d="M22.1262 43.0816H22.1237V55.5205H22.1262V43.0816Z" fill="white"/>
<path d="M22.1274 43.0816H22.1249V55.5205H22.1274V43.0816Z" fill="white"/>
<path d="M22.13 43.0816H22.1274V55.5205H22.13V43.0816Z" fill="white"/>
<path d="M22.1326 43.0816H22.13V55.5205H22.1326V43.0816Z" fill="white"/>
<path d="M22.1351 43.0816H22.1326V55.5205H22.1351V43.0816Z" fill="white"/>
<path d="M22.1377 43.0816H22.1351V55.5205H22.1377V43.0816Z" fill="white"/>
<path d="M22.1401 43.0816H22.1376V55.5205H22.1401V43.0816Z" fill="white"/>
<path d="M22.1428 43.0816H22.1403V55.5205H22.1428V43.0816Z" fill="white"/>
<path d="M22.1454 43.0816H22.1428V55.5205H22.1454V43.0816Z" fill="white"/>
<path d="M22.1478 43.0816H22.1453V55.5205H22.1478V43.0816Z" fill="white"/>
<path d="M22.1504 43.0816H22.1478V55.5205H22.1504V43.0816Z" fill="white"/>
<path d="M22.1529 43.0816H22.1504V55.5205H22.1529V43.0816Z" fill="white"/>
<path d="M22.1554 43.0816H22.1528V55.5205H22.1554V43.0816Z" fill="white"/>
<path d="M22.1579 43.0816H22.1554V55.5205H22.1579V43.0816Z" fill="white"/>
<path d="M22.1605 43.0816H22.158V55.5205H22.1605V43.0816Z" fill="white"/>
<path d="M22.1631 43.0816H22.1605V55.5205H22.1631V43.0816Z" fill="white"/>
<path d="M22.1656 43.0816H22.1631V55.5205H22.1656V43.0816Z" fill="white"/>
<path d="M22.1682 43.0816H22.1656V55.5205H22.1682V43.0816Z" fill="white"/>
<path d="M22.1708 43.0816H22.1682V55.5205H22.1708V43.0816Z" fill="white"/>
<path d="M22.1733 43.0816H22.1708V55.5205H22.1733V43.0816Z" fill="white"/>
<path d="M22.1759 43.0816H22.1733V55.5205H22.1759V43.0816Z" fill="white"/>
<path d="M22.1785 43.0816H22.1759V55.5205H22.1785V43.0816Z" fill="white"/>
<path d="M22.181 43.0816H22.1785V55.5205H22.181V43.0816Z" fill="white"/>
<path d="M22.1835 43.0816H22.1809V55.5205H22.1835V43.0816Z" fill="white"/>
<path d="M22.186 43.0816H22.1835V55.5205H22.186V43.0816Z" fill="white"/>
<path d="M22.1873 43.0816H22.186V55.5205H22.1873V43.0816Z" fill="white"/>
</g>
<path d="M26.4437 61.3312H14.1365V61.8421H26.4437V61.3312Z" fill="white"/>
<mask id="mask2_16_1259" style="mask-type:luminance" maskUnits="userSpaceOnUse" x="14" y="61" width="13" height="1">
<path d="M26.4437 61.3312H14.1365V61.8421H26.4437V61.3312Z" fill="white"/>
</mask>
<g mask="url(#mask2_16_1259)">
<path d="M14.2245 61.3312H14.1365V61.8421H14.2245V61.3312Z" fill="white"/>
<path d="M14.311 61.3313H14.223V61.8421H14.311V61.3313Z" fill="white"/>
<path d="M14.3992 61.3313H14.3112V61.8421H14.3992V61.3313Z" fill="white"/>
<path d="M14.4871 61.3313H14.399V61.8421H14.4871V61.3313Z" fill="white"/>
<path d="M14.5738 61.3313H14.4858V61.8421H14.5738V61.3313Z" fill="white"/>
<path d="M14.6619 61.3313H14.5739V61.8421H14.6619V61.3313Z" fill="white"/>
<path d="M14.7485 61.3313H14.6605V61.8421H14.7485V61.3313Z" fill="white"/>
<path d="M14.8367 61.3313H14.7487V61.8421H14.8367V61.3313Z" fill="white"/>
<path d="M14.9233 61.3313H14.8353V61.8421H14.9233V61.3313Z" fill="white"/>
<path d="M15.0113 61.3313H14.9233V61.8421H15.0113V61.3313Z" fill="white"/>
<path d="M15.0994 61.3313H15.0114V61.8421H15.0994V61.3313Z" fill="white"/>
<path d="M15.186 61.3313H15.098V61.8421H15.186V61.3313Z" fill="white"/>
<path d="M15.274 61.3313H15.186V61.8421H15.274V61.3313Z" fill="white"/>
<path d="M15.3608 61.3313H15.2728V61.8421H15.3608V61.3313Z" fill="white"/>
<path d="M15.4487 61.3313H15.3607V61.8421H15.4487V61.3313Z" fill="white"/>
<path d="M15.5356 61.3313H15.4476V61.8421H15.5356V61.3313Z" fill="white"/>
<path d="M15.6235 61.3313H15.5355V61.8421H15.6235V61.3313Z" fill="white"/>
<path d="M15.7115 61.3313H15.6235V61.8421H15.7115V61.3313Z" fill="white"/>
<path d="M15.7983 61.3313H15.7103V61.8421H15.7983V61.3313Z" fill="white"/>
<path d="M15.8863 61.3313H15.7983V61.8421H15.8863V61.3313Z" fill="white"/>
<path d="M15.973 61.3313H15.885V61.8421H15.973V61.3313Z" fill="white"/>
<path d="M16.061 61.3313H15.973V61.8421H16.061V61.3313Z" fill="white"/>
<path d="M16.1478 61.3313H16.0598V61.8421H16.1478V61.3313Z" fill="white"/>
<path d="M16.2358 61.3313H16.1478V61.8421H16.2358V61.3313Z" fill="white"/>
<path d="M16.3237 61.3313H16.2357V61.8421H16.3237V61.3313Z" fill="white"/>
<path d="M16.4105 61.3313H16.3225V61.8421H16.4105V61.3313Z" fill="white"/>
<path d="M16.4985 61.3313H16.4105V61.8421H16.4985V61.3313Z" fill="white"/>
<path d="M16.5853 61.3313H16.4973V61.8421H16.5853V61.3313Z" fill="white"/>
<path d="M16.6733 61.3313H16.5853V61.8421H16.6733V61.3313Z" fill="white"/>
<path d="M16.76 61.3313H16.672V61.8421H16.76V61.3313Z" fill="white"/>
<path d="M16.848 61.3313H16.76V61.8421H16.848V61.3313Z" fill="white"/>
<path d="M16.936 61.3313H16.848V61.8421H16.936V61.3313Z" fill="white"/>
<path d="M17.0228 61.3313H16.9348V61.8421H17.0228V61.3313Z" fill="white"/>
<path d="M17.1108 61.3313H17.0228V61.8421H17.1108V61.3313Z" fill="white"/>
<path d="M17.1975 61.3313H17.1095V61.8421H17.1975V61.3313Z" fill="white"/>
<path d="M17.2855 61.3313H17.1975V61.8421H17.2855V61.3313Z" fill="white"/>
<path d="M17.3723 61.3313H17.2843V61.8421H17.3723V61.3313Z" fill="white"/>
<path d="M17.4602 61.3313H17.3722V61.8421H17.4602V61.3313Z" fill="white"/>
<path d="M17.5483 61.3313H17.4603V61.8421H17.5483V61.3313Z" fill="white"/>
<path d="M17.635 61.3313H17.547V61.8421H17.635V61.3313Z" fill="white"/>
<path d="M17.723 61.3313H17.635V61.8421H17.723V61.3313Z" fill="white"/>
<path d="M17.8098 61.3313H17.7218V61.8421H17.8098V61.3313Z" fill="white"/>
<path d="M17.8977 61.3313H17.8097V61.8421H17.8977V61.3313Z" fill="white"/>
<path d="M17.9845 61.3313H17.8965V61.8421H17.9845V61.3313Z" fill="white"/>
<path d="M18.0725 61.3313H17.9845V61.8421H18.0725V61.3313Z" fill="white"/>
<path d="M18.1605 61.3313H18.0725V61.8421H18.1605V61.3313Z" fill="white"/>
<path d="M18.2472 61.3313H18.1592V61.8421H18.2472V61.3313Z" fill="white"/>
<path d="M18.3353 61.3313H18.2473V61.8421H18.3353V61.3313Z" fill="white"/>
<path d="M18.422 61.3313H18.334V61.8421H18.422V61.3313Z" fill="white"/>
<path d="M18.51 61.3313H18.422V61.8421H18.51V61.3313Z" fill="white"/>
<path d="M18.5967 61.3313H18.5087V61.8421H18.5967V61.3313Z" fill="white"/>
<path d="M18.6848 61.3313H18.5968V61.8421H18.6848V61.3313Z" fill="white"/>
<path d="M18.7728 61.3313H18.6848V61.8421H18.7728V61.3313Z" fill="white"/>
<path d="M18.8596 61.3313H18.7716V61.8421H18.8596V61.3313Z" fill="white"/>
<path d="M18.9476 61.3313H18.8596V61.8421H18.9476V61.3313Z" fill="white"/>
<path d="M19.0343 61.3313H18.9463V61.8421H19.0343V61.3313Z" fill="white"/>
<path d="M19.1223 61.3313H19.0343V61.8421H19.1223V61.3313Z" fill="white"/>
<path d="M19.2091 61.3313H19.1211V61.8421H19.2091V61.3313Z" fill="white"/>
<path d="M19.297 61.3313H19.209V61.8421H19.297V61.3313Z" fill="white"/>
<path d="M19.385 61.3313H19.297V61.8421H19.385V61.3313Z" fill="white"/>
<path d="M19.4717 61.3313H19.3837V61.8421H19.4717V61.3313Z" fill="white"/>
<path d="M19.5597 61.3313H19.4717V61.8421H19.5597V61.3313Z" fill="white"/>
<path d="M19.6465 61.3313H19.5585V61.8421H19.6465V61.3313Z" fill="white"/>
<path d="M19.7345 61.3313H19.6465V61.8421H19.7345V61.3313Z" fill="white"/>
<path d="M19.8212 61.3313H19.7332V61.8421H19.8212V61.3313Z" fill="white"/>
<path d="M19.9092 61.3313H19.8212V61.8421H19.9092V61.3313Z" fill="white"/>
<path d="M19.9972 61.3313H19.9092V61.8421H19.9972V61.3313Z" fill="white"/>
<path d="M20.0839 61.3313H19.9958V61.8421H20.0839V61.3313Z" fill="white"/>
<path d="M20.1719 61.3313H20.0839V61.8421H20.1719V61.3313Z" fill="white"/>
<path d="M20.2587 61.3313H20.1707V61.8421H20.2587V61.3313Z" fill="white"/>
<path d="M20.3467 61.3313H20.2587V61.8421H20.3467V61.3313Z" fill="white"/>
<path d="M20.4335 61.3313H20.3455V61.8421H20.4335V61.3313Z" fill="white"/>
<path d="M20.5215 61.3313H20.4335V61.8421H20.5215V61.3313Z" fill="white"/>
<path d="M20.6095 61.3313H20.5215V61.8421H20.6095V61.3313Z" fill="white"/>
<path d="M20.6962 61.3313H20.6082V61.8421H20.6962V61.3313Z" fill="white"/>
<path d="M20.7843 61.3313H20.6963V61.8421H20.7843V61.3313Z" fill="white"/>
<path d="M20.8429 61.3313H20.783V61.8421H20.8429V61.3313Z" fill="white"/>
<path d="M20.9042 61.3313H20.8442V61.8421H20.9042V61.3313Z" fill="white"/>
<path d="M20.9641 61.3313H20.9042V61.8421H20.9641V61.3313Z" fill="white"/>
<path d="M21.0239 61.3313H20.964V61.8421H21.0239V61.3313Z" fill="white"/>
<path d="M21.0852 61.3313H21.0253V61.8421H21.0852V61.3313Z" fill="white"/>
<path d="M21.1453 61.3313H21.0853V61.8421H21.1453V61.3313Z" fill="white"/>
<path d="M21.2064 61.3313H21.1465V61.8421H21.2064V61.3313Z" fill="white"/>
<path d="M21.2664 61.3313H21.2064V61.8421H21.2664V61.3313Z" fill="white"/>
<path d="M21.3262 61.3313H21.2662V61.8421H21.3262V61.3313Z" fill="white"/>
<path d="M21.3876 61.3313H21.3276V61.8421H21.3876V61.3313Z" fill="white"/>
<path d="M21.4475 61.3313H21.3876V61.8421H21.4475V61.3313Z" fill="white"/>
<path d="M21.5075 61.3313H21.4475V61.8421H21.5075V61.3313Z" fill="white"/>
<path d="M21.5686 61.3313H21.5087V61.8421H21.5686V61.3313Z" fill="white"/>
<path d="M21.6286 61.3313H21.5686V61.8421H21.6286V61.3313Z" fill="white"/>
<path d="M21.6885 61.3313H21.6285V61.8421H21.6885V61.3313Z" fill="white"/>
<path d="M21.7498 61.3313H21.6898V61.8421H21.7498V61.3313Z" fill="white"/>
<path d="M21.8098 61.3313H21.7499V61.8421H21.8098V61.3313Z" fill="white"/>
<path d="M21.8696 61.3313H21.8097V61.8421H21.8696V61.3313Z" fill="white"/>
<path d="M21.9309 61.3313H21.871V61.8421H21.9309V61.3313Z" fill="white"/>
<path d="M21.9909 61.3313H21.9309V61.8421H21.9909V61.3313Z" fill="white"/>
<path d="M22.052 61.3313H21.9921V61.8421H22.052V61.3313Z" fill="white"/>
<path d="M22.112 61.3313H22.052V61.8421H22.112V61.3313Z" fill="white"/>
<path d="M22.1719 61.3313H22.1119V61.8421H22.1719V61.3313Z" fill="white"/>
<path d="M22.2333 61.3313H22.1733V61.8421H22.2333V61.3313Z" fill="white"/>
<path d="M22.2931 61.3313H22.2332V61.8421H22.2931V61.3313Z" fill="white"/>
<path d="M22.353 61.3313H22.2931V61.8421H22.353V61.3313Z" fill="white"/>
<path d="M22.4143 61.3313H22.3544V61.8421H22.4143V61.3313Z" fill="white"/>
<path d="M22.4743 61.3313H22.4143V61.8421H22.4743V61.3313Z" fill="white"/>
<path d="M22.5342 61.3313H22.4742V61.8421H22.5342V61.3313Z" fill="white"/>
<path d="M22.5953 61.3313H22.5354V61.8421H22.5953V61.3313Z" fill="white"/>
<path d="M22.6554 61.3313H22.5955V61.8421H22.6554V61.3313Z" fill="white"/>
<path d="M22.7166 61.3313H22.6566V61.8421H22.7166V61.3313Z" fill="white"/>
<path d="M22.7766 61.3313H22.7167V61.8421H22.7766V61.3313Z" fill="white"/>
<path d="M22.8366 61.3313H22.7766V61.8421H22.8366V61.3313Z" fill="white"/>
<path d="M22.8977 61.3313H22.8378V61.8421H22.8977V61.3313Z" fill="white"/>
<path d="M22.9577 61.3313H22.8977V61.8421H22.9577V61.3313Z" fill="white"/>
<path d="M23.0176 61.3313H22.9576V61.8421H23.0176V61.3313Z" fill="white"/>
<path d="M23.0789 61.3313H23.0189V61.8421H23.0789V61.3313Z" fill="white"/>
<path d="M23.1388 61.3313H23.0789V61.8421H23.1388V61.3313Z" fill="white"/>
<path d="M23.1986 61.3313H23.1387V61.8421H23.1986V61.3313Z" fill="white"/>
<path d="M23.2599 61.3313H23.2V61.8421H23.2599V61.3313Z" fill="white"/>
<path d="M23.32 61.3313H23.26V61.8421H23.32V61.3313Z" fill="white"/>
<path d="M23.3799 61.3313H23.3199V61.8421H23.3799V61.3313Z" fill="white"/>
<path d="M23.4412 61.3313H23.3812V61.8421H23.4412V61.3313Z" fill="white"/>
<path d="M23.501 61.3313H23.441V61.8421H23.501V61.3313Z" fill="white"/>
<path d="M23.5623 61.3313H23.5023V61.8421H23.5623V61.3313Z" fill="white"/>
<path d="M23.6222 61.3313H23.5623V61.8421H23.6222V61.3313Z" fill="white"/>
<path d="M23.6823 61.3313H23.6223V61.8421H23.6823V61.3313Z" fill="white"/>
<path d="M23.7433 61.3313H23.6833V61.8421H23.7433V61.3313Z" fill="white"/>
<path d="M23.8032 61.3313H23.7433V61.8421H23.8032V61.3313Z" fill="white"/>
<path d="M23.8633 61.3313H23.8033V61.8421H23.8633V61.3313Z" fill="white"/>
<path d="M23.9246 61.3313H23.8646V61.8421H23.9246V61.3313Z" fill="white"/>
<path d="M23.9845 61.3313H23.9246V61.8421H23.9845V61.3313Z" fill="white"/>
<path d="M24.0443 61.3313H23.9844V61.8421H24.0443V61.3313Z" fill="white"/>
<path d="M24.1056 61.3313H24.0457V61.8421H24.1056V61.3313Z" fill="white"/>
<path d="M24.1655 61.3313H24.1056V61.8421H24.1655V61.3313Z" fill="white"/>
<path d="M24.2256 61.3313H24.1656V61.8421H24.2256V61.3313Z" fill="white"/>
<path d="M24.2868 61.3313H24.2268V61.8421H24.2868V61.3313Z" fill="white"/>
<path d="M24.3467 61.3313H24.2867V61.8421H24.3467V61.3313Z" fill="white"/>
<path d="M24.4078 61.3313H24.3479V61.8421H24.4078V61.3313Z" fill="white"/>
<path d="M24.4679 61.3313H24.408V61.8421H24.4679V61.3313Z" fill="white"/>
<path d="M24.5278 61.3313H24.4679V61.8421H24.5278V61.3313Z" fill="white"/>
<path d="M24.589 61.3313H24.5291V61.8421H24.589V61.3313Z" fill="white"/>
<path d="M24.6489 61.3313H24.589V61.8421H24.6489V61.3313Z" fill="white"/>
<path d="M24.7089 61.3313H24.6489V61.8421H24.7089V61.3313Z" fill="white"/>
<path d="M24.7702 61.3313H24.7102V61.8421H24.7702V61.3313Z" fill="white"/>
<path d="M24.8301 61.3313H24.7701V61.8421H24.8301V61.3313Z" fill="white"/>
<path d="M24.8901 61.3313H24.8302V61.8421H24.8901V61.3313Z" fill="white"/>
<path d="M24.9513 61.3313H24.8914V61.8421H24.9513V61.3313Z" fill="white"/>
<path d="M25.0112 61.3313H24.9513V61.8421H25.0112V61.3313Z" fill="white"/>
<path d="M25.0724 61.3313H25.0125V61.8421H25.0724V61.3313Z" fill="white"/>
<path d="M25.1325 61.3313H25.0725V61.8421H25.1325V61.3313Z" fill="white"/>
<path d="M25.1923 61.3313H25.1323V61.8421H25.1923V61.3313Z" fill="white"/>
<path d="M25.2536 61.3313H25.1936V61.8421H25.2536V61.3313Z" fill="white"/>
<path d="M25.3136 61.3313H25.2537V61.8421H25.3136V61.3313Z" fill="white"/>
<path d="M25.3734 61.3313H25.3135V61.8421H25.3734V61.3313Z" fill="white"/>
<path d="M25.4347 61.3313H25.3748V61.8421H25.4347V61.3313Z" fill="white"/>
<path d="M25.4946 61.3313H25.4347V61.8421H25.4946V61.3313Z" fill="white"/>
<path d="M25.5546 61.3313H25.4946V61.8421H25.5546V61.3313Z" fill="white"/>
<path d="M25.6157 61.3313H25.5558V61.8421H25.6157V61.3313Z" fill="white"/>
<path d="M25.6757 61.3313H25.6157V61.8421H25.6757V61.3313Z" fill="white"/>
<path d="M25.7357 61.3313H25.6758V61.8421H25.7357V61.3313Z" fill="white"/>
<path d="M25.7969 61.3313H25.7369V61.8421H25.7969V61.3313Z" fill="white"/>
<path d="M25.8569 61.3313H25.797V61.8421H25.8569V61.3313Z" fill="white"/>
<path d="M25.918 61.3313H25.858V61.8421H25.918V61.3313Z" fill="white"/>
<path d="M25.978 61.3313H25.9181V61.8421H25.978V61.3313Z" fill="white"/>
<path d="M26.038 61.3313H25.978V61.8421H26.038V61.3313Z" fill="white"/>
<path d="M26.0993 61.3313H26.0393V61.8421H26.0993V61.3313Z" fill="white"/>
<path d="M26.1592 61.3313H26.0992V61.8421H26.1592V61.3313Z" fill="white"/>
<path d="M26.2191 61.3313H26.1592V61.8421H26.2191V61.3313Z" fill="white"/>
<path d="M26.2803 61.3313H26.2203V61.8421H26.2803V61.3313Z" fill="white"/>
<path d="M26.3402 61.3313H26.2803V61.8421H26.3402V61.3313Z" fill="white"/>
<path d="M26.4003 61.3313H26.3403V61.8421H26.4003V61.3313Z" fill="white"/>
<path d="M26.4436 61.3313H26.4015V61.8421H26.4436V61.3313Z" fill="white"/>
</g>
<path d="M18.6108 42.4187C18.0726 42.4187 17.6338 41.9794 17.6338 41.4405C17.6338 40.9015 18.0726 40.4622 18.6108 40.4622C19.1491 40.4622 19.5878 40.9015 19.5878 41.4405C19.5878 41.9794 19.1491 42.4187 18.6108 42.4187ZM18.6108 40.8453C18.283 40.8453 18.0164 41.1122 18.0164 41.4405C18.0164 41.7687 18.283 42.0356 18.6108 42.0356C18.9386 42.0356 19.2052 41.7687 19.2052 41.4405C19.2052 41.1122 18.9386 40.8453 18.6108 40.8453Z" fill="white"/>
<path d="M13.4221 62.5432C12.8838 62.5432 12.4451 62.1038 12.4451 61.5649C12.4451 61.026 12.8838 60.5866 13.4221 60.5866C13.9604 60.5866 14.3991 61.026 14.3991 61.5649C14.3991 62.1038 13.9604 62.5432 13.4221 62.5432ZM13.4221 60.9698C13.0943 60.9698 12.8277 61.2367 12.8277 61.5649C12.8277 61.8931 13.0943 62.16 13.4221 62.16C13.7499 62.16 14.0165 61.8931 14.0165 61.5649C14.0165 61.2367 13.7499 60.9698 13.4221 60.9698Z" fill="white"/>
<path d="M13.6504 55.6877C13.1121 55.6877 12.6733 56.127 12.6733 56.666C12.6733 57.2049 13.1121 57.6442 13.6504 57.6442C14.1886 57.6442 14.6274 57.2062 14.6274 56.666C14.6274 56.1258 14.1886 55.6877 13.6504 55.6877ZM13.6504 57.2611C13.3226 57.2611 13.056 56.9942 13.056 56.666C13.056 56.3378 13.3226 56.0708 13.6504 56.0708C13.9782 56.0708 14.2448 56.3378 14.2448 56.666C14.2448 56.9942 13.9782 57.2611 13.6504 57.2611Z" fill="white"/>
<path d="M21.954 43.2118C21.4157 43.2118 20.9769 42.7725 20.9769 42.2335C20.9769 41.6946 21.4157 41.2553 21.954 41.2553C22.4922 41.2553 22.931 41.6946 22.931 42.2335C22.931 42.7725 22.4922 43.2118 21.954 43.2118ZM21.954 41.6397C21.6262 41.6397 21.3596 41.9066 21.3596 42.2348C21.3596 42.563 21.6262 42.8299 21.954 42.8299C22.2818 42.8299 22.5483 42.563 22.5483 42.2348C22.5483 41.9066 22.2818 41.6397 21.954 41.6397Z" fill="white"/>
<path d="M21.954 57.2994C21.4157 57.2994 20.9769 56.8601 20.9769 56.3212C20.9769 55.7822 21.4157 55.3429 21.954 55.3429C22.4922 55.3429 22.931 55.7822 22.931 56.3212C22.931 56.8601 22.4922 57.2994 21.954 57.2994ZM21.954 55.7273C21.6262 55.7273 21.3596 55.9942 21.3596 56.3224C21.3596 56.6506 21.6262 56.9176 21.954 56.9176C22.2818 56.9176 22.5483 56.6506 22.5483 56.3224C22.5483 55.9942 22.2818 55.7273 21.954 55.7273Z" fill="white"/>
<path d="M24.7013 65.3579C24.1617 65.3579 23.7242 65.7959 23.7242 66.3362C23.7242 66.8764 24.1617 67.3144 24.7013 67.3144C25.2408 67.3144 25.677 66.8751 25.677 66.3362C25.677 65.7972 25.2395 65.3579 24.7013 65.3579ZM24.7013 66.9313C24.3735 66.9313 24.1069 66.6644 24.1069 66.3362C24.1069 66.0079 24.3735 65.741 24.7013 65.741C25.0291 65.741 25.2944 66.0079 25.2944 66.3362C25.2944 66.6644 25.0278 66.9313 24.7013 66.9313Z" fill="white"/>
<path d="M14.5815 78.1174C14.0433 78.1174 13.6045 77.678 13.6045 77.1391C13.6045 76.6002 14.0433 76.1608 14.5815 76.1608C15.1198 76.1608 15.5586 76.6002 15.5586 77.1391C15.5586 77.678 15.1198 78.1174 14.5815 78.1174ZM14.5815 76.544C14.2537 76.544 13.9871 76.8109 13.9871 77.1391C13.9871 77.4673 14.2537 77.7342 14.5815 77.7342C14.9093 77.7342 15.1759 77.4673 15.1759 77.1391C15.1759 76.8109 14.9093 76.544 14.5815 76.544Z" fill="white"/>
<path d="M14.8048 76.4597H14.2946V67.7052C14.2946 66.8061 15.0254 66.0743 15.9234 66.0743H23.9666V66.5852H15.9234C15.306 66.5852 14.8048 67.0871 14.8048 67.7052V76.4597Z" fill="white"/>
<mask id="mask3_16_1259" style="mask-type:luminance" maskUnits="userSpaceOnUse" x="14" y="66" width="10" height="11">
<path d="M14.8048 76.4597H14.2946V67.7052C14.2946 66.8061 15.0254 66.0743 15.9234 66.0743H23.9666V66.5852H15.9234C15.306 66.5852 14.8048 67.0871 14.8048 67.7052V76.4597Z" fill="white"/>
</mask>
<g mask="url(#mask3_16_1259)">
<path d="M14.3634 66.0743H14.2946V76.4597H14.3634V66.0743Z" fill="white"/>
<path d="M14.4322 66.0743H14.3633V76.4597H14.4322V66.0743Z" fill="white"/>
<path d="M14.5011 66.0743H14.4323V76.4597H14.5011V66.0743Z" fill="white"/>
<path d="M14.5701 66.0743H14.5012V76.4597H14.5701V66.0743Z" fill="white"/>
<path d="M14.6388 66.0743H14.5699V76.4597H14.6388V66.0743Z" fill="white"/>
<path d="M14.7078 66.0743H14.6389V76.4597H14.7078V66.0743Z" fill="white"/>
<path d="M14.7766 66.0743H14.7078V76.4597H14.7766V66.0743Z" fill="white"/>
<path d="M14.8455 66.0743H14.7766V76.4597H14.8455V66.0743Z" fill="white"/>
<path d="M14.9145 66.0743H14.8456V76.4597H14.9145V66.0743Z" fill="white"/>
<path d="M14.982 66.0743H14.9131V76.4597H14.982V66.0743Z" fill="white"/>
<path d="M15.0509 66.0743H14.9821V76.4597H15.0509V66.0743Z" fill="white"/>
<path d="M15.1197 66.0743H15.0508V76.4597H15.1197V66.0743Z" fill="white"/>
<path d="M15.1886 66.0743H15.1198V76.4597H15.1886V66.0743Z" fill="white"/>
<path d="M15.2575 66.0743H15.1886V76.4597H15.2575V66.0743Z" fill="white"/>
<path d="M15.3263 66.0743H15.2574V76.4597H15.3263V66.0743Z" fill="white"/>
<path d="M15.3953 66.0743H15.3264V76.4597H15.3953V66.0743Z" fill="white"/>
<path d="M15.4641 66.0743H15.3953V76.4597H15.4641V66.0743Z" fill="white"/>
<path d="M15.533 66.0743H15.4641V76.4597H15.533V66.0743Z" fill="white"/>
<path d="M15.6006 66.0743H15.5317V76.4597H15.6006V66.0743Z" fill="white"/>
<path d="M15.6695 66.0743H15.6006V76.4597H15.6695V66.0743Z" fill="white"/>
<path d="M15.7383 66.0743H15.6694V76.4597H15.7383V66.0743Z" fill="white"/>
<path d="M15.8073 66.0743H15.7384V76.4597H15.8073V66.0743Z" fill="white"/>
<path d="M15.8761 66.0743H15.8073V76.4597H15.8761V66.0743Z" fill="white"/>
<path d="M15.9449 66.0743H15.876V76.4597H15.9449V66.0743Z" fill="white"/>
<path d="M16.0138 66.0743H15.9449V76.4597H16.0138V66.0743Z" fill="white"/>
<path d="M16.0828 66.0743H16.0139V76.4597H16.0828V66.0743Z" fill="white"/>
<path d="M16.1503 66.0743H16.0814V76.4597H16.1503V66.0743Z" fill="white"/>
<path d="M16.2191 66.0743H16.1503V76.4597H16.2191V66.0743Z" fill="white"/>
<path d="M16.2881 66.0743H16.2192V76.4597H16.2881V66.0743Z" fill="white"/>
<path d="M16.3571 66.0743H16.2882V76.4597H16.3571V66.0743Z" fill="white"/>
<path d="M16.4258 66.0743H16.3569V76.4597H16.4258V66.0743Z" fill="white"/>
<path d="M16.4948 66.0743H16.4259V76.4597H16.4948V66.0743Z" fill="white"/>
<path d="M16.5636 66.0743H16.4948V76.4597H16.5636V66.0743Z" fill="white"/>
<path d="M16.6325 66.0743H16.5636V76.4597H16.6325V66.0743Z" fill="white"/>
<path d="M16.7013 66.0743H16.6324V76.4597H16.7013V66.0743Z" fill="white"/>
<path d="M16.769 66.0743H16.7001V76.4597H16.769V66.0743Z" fill="white"/>
<path d="M16.8378 66.0743H16.7689V76.4597H16.8378V66.0743Z" fill="white"/>
<path d="M16.9068 66.0743H16.8379V76.4597H16.9068V66.0743Z" fill="white"/>
<path d="M16.9755 66.0743H16.9066V76.4597H16.9755V66.0743Z" fill="white"/>
<path d="M17.0445 66.0743H16.9756V76.4597H17.0445V66.0743Z" fill="white"/>
<path d="M17.1133 66.0743H17.0444V76.4597H17.1133V66.0743Z" fill="white"/>
<path d="M17.1822 66.0743H17.1133V76.4597H17.1822V66.0743Z" fill="white"/>
<path d="M17.251 66.0743H17.1821V76.4597H17.251V66.0743Z" fill="white"/>
<path d="M17.32 66.0743H17.2511V76.4597H17.32V66.0743Z" fill="white"/>
<path d="M17.3876 66.0743H17.3187V76.4597H17.3876V66.0743Z" fill="white"/>
<path d="M17.4565 66.0743H17.3876V76.4597H17.4565V66.0743Z" fill="white"/>
<path d="M17.5253 66.0743H17.4564V76.4597H17.5253V66.0743Z" fill="white"/>
<path d="M17.5943 66.0743H17.5254V76.4597H17.5943V66.0743Z" fill="white"/>
<path d="M17.663 66.0743H17.5941V76.4597H17.663V66.0743Z" fill="white"/>
<path d="M17.732 66.0743H17.6631V76.4597H17.732V66.0743Z" fill="white"/>
<path d="M17.8009 66.0743H17.7321V76.4597H17.8009V66.0743Z" fill="white"/>
<path d="M17.8698 66.0743H17.8009V76.4597H17.8698V66.0743Z" fill="white"/>
<path d="M17.9386 66.0743H17.8698V76.4597H17.9386V66.0743Z" fill="white"/>
<path d="M18.0061 66.0743H17.9373V76.4597H18.0061V66.0743Z" fill="white"/>
<path d="M18.0751 66.0743H18.0062V76.4597H18.0751V66.0743Z" fill="white"/>
<path d="M18.144 66.0743H18.0751V76.4597H18.144V66.0743Z" fill="white"/>
<path d="M18.2128 66.0743H18.1439V76.4597H18.2128V66.0743Z" fill="white"/>
<path d="M18.2816 66.0743H18.2128V76.4597H18.2816V66.0743Z" fill="white"/>
<path d="M18.3505 66.0743H18.2816V76.4597H18.3505V66.0743Z" fill="white"/>
<path d="M18.4195 66.0743H18.3506V76.4597H18.4195V66.0743Z" fill="white"/>
<path d="M18.4883 66.0743H18.4194V76.4597H18.4883V66.0743Z" fill="white"/>
<path d="M18.5572 66.0743H18.4883V76.4597H18.5572V66.0743Z" fill="white"/>
<path d="M18.6248 66.0743H18.5559V76.4597H18.6248V66.0743Z" fill="white"/>
<path d="M18.6936 66.0743H18.6248V76.4597H18.6936V66.0743Z" fill="white"/>
<path d="M18.7625 66.0743H18.6936V76.4597H18.7625V66.0743Z" fill="white"/>
<path d="M18.8315 66.0743H18.7626V76.4597H18.8315V66.0743Z" fill="white"/>
<path d="M18.9004 66.0743H18.8315V76.4597H18.9004V66.0743Z" fill="white"/>
<path d="M18.9691 66.0743H18.9003V76.4597H18.9691V66.0743Z" fill="white"/>
<path d="M19.0381 66.0743H18.9692V76.4597H19.0381V66.0743Z" fill="white"/>
<path d="M19.107 66.0743H19.0381V76.4597H19.107V66.0743Z" fill="white"/>
<path d="M19.1758 66.0743H19.1069V76.4597H19.1758V66.0743Z" fill="white"/>
<path d="M19.2434 66.0743H19.1746V76.4597H19.2434V66.0743Z" fill="white"/>
<path d="M19.3123 66.0743H19.2434V76.4597H19.3123V66.0743Z" fill="white"/>
<path d="M19.3811 66.0743H19.3123V76.4597H19.3811V66.0743Z" fill="white"/>
<path d="M19.45 66.0743H19.3811V76.4597H19.45V66.0743Z" fill="white"/>
<path d="M19.519 66.0743H19.4501V76.4597H19.519V66.0743Z" fill="white"/>
<path d="M19.5661 66.0743H19.5189V76.4597H19.5661V66.0743Z" fill="white"/>
<path d="M19.6134 66.0743H19.5662V76.4597H19.6134V66.0743Z" fill="white"/>
<path d="M19.6606 66.0743H19.6134V76.4597H19.6606V66.0743Z" fill="white"/>
<path d="M19.7089 66.0743H19.6617V76.4597H19.7089V66.0743Z" fill="white"/>
<path d="M19.7562 66.0743H19.709V76.4597H19.7562V66.0743Z" fill="white"/>
<path d="M19.8033 66.0743H19.7561V76.4597H19.8033V66.0743Z" fill="white"/>
<path d="M19.8505 66.0743H19.8033V76.4597H19.8505V66.0743Z" fill="white"/>
<path d="M19.8978 66.0743H19.8506V76.4597H19.8978V66.0743Z" fill="white"/>
<path d="M19.9462 66.0743H19.899V76.4597H19.9462V66.0743Z" fill="white"/>
<path d="M19.9935 66.0743H19.9463V76.4597H19.9935V66.0743Z" fill="white"/>
<path d="M20.0406 66.0743H19.9934V76.4597H20.0406V66.0743Z" fill="white"/>
<path d="M20.0878 66.0743H20.0406V76.4597H20.0878V66.0743Z" fill="white"/>
<path d="M20.135 66.0743H20.0878V76.4597H20.135V66.0743Z" fill="white"/>
<path d="M20.1834 66.0743H20.1362V76.4597H20.1834V66.0743Z" fill="white"/>
<path d="M20.2307 66.0743H20.1835V76.4597H20.2307V66.0743Z" fill="white"/>
<path d="M20.2778 66.0743H20.2306V76.4597H20.2778V66.0743Z" fill="white"/>
<path d="M20.325 66.0743H20.2778V76.4597H20.325V66.0743Z" fill="white"/>
<path d="M20.3735 66.0743H20.3263V76.4597H20.3735V66.0743Z" fill="white"/>
<path d="M20.4207 66.0743H20.3735V76.4597H20.4207V66.0743Z" fill="white"/>
<path d="M20.4678 66.0743H20.4207V76.4597H20.4678V66.0743Z" fill="white"/>
<path d="M20.5151 66.0743H20.4679V76.4597H20.5151V66.0743Z" fill="white"/>
<path d="M20.5623 66.0743H20.5151V76.4597H20.5623V66.0743Z" fill="white"/>
<path d="M20.6107 66.0743H20.5635V76.4597H20.6107V66.0743Z" fill="white"/>
<path d="M20.6579 66.0743H20.6107V76.4597H20.6579V66.0743Z" fill="white"/>
<path d="M20.7052 66.0743H20.658V76.4597H20.7052V66.0743Z" fill="white"/>
<path d="M20.7524 66.0743H20.7052V76.4597H20.7524V66.0743Z" fill="white"/>
<path d="M20.8007 66.0743H20.7535V76.4597H20.8007V66.0743Z" fill="white"/>
<path d="M20.848 66.0743H20.8008V76.4597H20.848V66.0743Z" fill="white"/>
<path d="M20.8952 66.0743H20.848V76.4597H20.8952V66.0743Z" fill="white"/>
<path d="M20.9425 66.0743H20.8953V76.4597H20.9425V66.0743Z" fill="white"/>
<path d="M20.9896 66.0743H20.9424V76.4597H20.9896V66.0743Z" fill="white"/>
<path d="M21.038 66.0743H20.9908V76.4597H21.038V66.0743Z" fill="white"/>
<path d="M21.0853 66.0743H21.0381V76.4597H21.0853V66.0743Z" fill="white"/>
<path d="M21.1325 66.0743H21.0853V76.4597H21.1325V66.0743Z" fill="white"/>
<path d="M21.1796 66.0743H21.1324V76.4597H21.1796V66.0743Z" fill="white"/>
<path d="M21.2268 66.0743H21.1796V76.4597H21.2268V66.0743Z" fill="white"/>
<path d="M21.2753 66.0743H21.2281V76.4597H21.2753V66.0743Z" fill="white"/>
<path d="M21.3225 66.0743H21.2753V76.4597H21.3225V66.0743Z" fill="white"/>
<path d="M21.3696 66.0743H21.3224V76.4597H21.3696V66.0743Z" fill="white"/>
<path d="M21.4168 66.0743H21.3696V76.4597H21.4168V66.0743Z" fill="white"/>
<path d="M21.4653 66.0743H21.4181V76.4597H21.4653V66.0743Z" fill="white"/>
<path d="M21.5125 66.0743H21.4653V76.4597H21.5125V66.0743Z" fill="white"/>
<path d="M21.5596 66.0743H21.5125V76.4597H21.5596V66.0743Z" fill="white"/>
<path d="M21.6069 66.0743H21.5597V76.4597H21.6069V66.0743Z" fill="white"/>
<path d="M21.654 66.0743H21.6068V76.4597H21.654V66.0743Z" fill="white"/>
<path d="M21.7026 66.0743H21.6554V76.4597H21.7026V66.0743Z" fill="white"/>
<path d="M21.7497 66.0743H21.7025V76.4597H21.7497V66.0743Z" fill="white"/>
<path d="M21.7971 66.0743H21.7499V76.4597H21.7971V66.0743Z" fill="white"/>
<path d="M21.8441 66.0743H21.7969V76.4597H21.8441V66.0743Z" fill="white"/>
<path d="M21.8925 66.0743H21.8453V76.4597H21.8925V66.0743Z" fill="white"/>
<path d="M21.9398 66.0743H21.8926V76.4597H21.9398V66.0743Z" fill="white"/>
<path d="M21.987 66.0743H21.9398V76.4597H21.987V66.0743Z" fill="white"/>
<path d="M22.0343 66.0743H21.9871V76.4597H22.0343V66.0743Z" fill="white"/>
<path d="M22.0814 66.0743H22.0342V76.4597H22.0814V66.0743Z" fill="white"/>
<path d="M22.13 66.0743H22.0828V76.4597H22.13V66.0743Z" fill="white"/>
<path d="M22.1771 66.0743H22.1299V76.4597H22.1771V66.0743Z" fill="white"/>
<path d="M22.2243 66.0743H22.1771V76.4597H22.2243V66.0743Z" fill="white"/>
<path d="M22.2714 66.0743H22.2242V76.4597H22.2714V66.0743Z" fill="white"/>
<path d="M22.3199 66.0743H22.2727V76.4597H22.3199V66.0743Z" fill="white"/>
<path d="M22.3671 66.0743H22.3199V76.4597H22.3671V66.0743Z" fill="white"/>
<path d="M22.4143 66.0743H22.3671V76.4597H22.4143V66.0743Z" fill="white"/>
<path d="M22.4615 66.0743H22.4143V76.4597H22.4615V66.0743Z" fill="white"/>
<path d="M22.5086 66.0743H22.4614V76.4597H22.5086V66.0743Z" fill="white"/>
<path d="M22.5572 66.0743H22.51V76.4597H22.5572V66.0743Z" fill="white"/>
<path d="M22.6043 66.0743H22.5571V76.4597H22.6043V66.0743Z" fill="white"/>
<path d="M22.6516 66.0743H22.6044V76.4597H22.6516V66.0743Z" fill="white"/>
<path d="M22.6987 66.0743H22.6515V76.4597H22.6987V66.0743Z" fill="white"/>
<path d="M22.7459 66.0743H22.6987V76.4597H22.7459V66.0743Z" fill="white"/>
<path d="M22.7944 66.0743H22.7472V76.4597H22.7944V66.0743Z" fill="white"/>
<path d="M22.8416 66.0743H22.7944V76.4597H22.8416V66.0743Z" fill="white"/>
<path d="M22.8887 66.0743H22.8416V76.4597H22.8887V66.0743Z" fill="white"/>
<path d="M22.936 66.0743H22.8888V76.4597H22.936V66.0743Z" fill="white"/>
<path d="M22.9844 66.0743H22.9373V76.4597H22.9844V66.0743Z" fill="white"/>
<path d="M23.0316 66.0743H22.9844V76.4597H23.0316V66.0743Z" fill="white"/>
<path d="M23.0788 66.0743H23.0316V76.4597H23.0788V66.0743Z" fill="white"/>
<path d="M23.1261 66.0743H23.0789V76.4597H23.1261V66.0743Z" fill="white"/>
<path d="M23.1733 66.0743H23.1261V76.4597H23.1733V66.0743Z" fill="white"/>
<path d="M23.2216 66.0743H23.1744V76.4597H23.2216V66.0743Z" fill="white"/>
<path d="M23.2689 66.0743H23.2217V76.4597H23.2689V66.0743Z" fill="white"/>
<path d="M23.3161 66.0743H23.2689V76.4597H23.3161V66.0743Z" fill="white"/>
<path d="M23.3632 66.0743H23.316V76.4597H23.3632V66.0743Z" fill="white"/>
<path d="M23.4118 66.0743H23.3646V76.4597H23.4118V66.0743Z" fill="white"/>
<path d="M23.4589 66.0743H23.4117V76.4597H23.4589V66.0743Z" fill="white"/>
<path d="M23.5062 66.0743H23.459V76.4597H23.5062V66.0743Z" fill="white"/>
<path d="M23.5533 66.0743H23.5061V76.4597H23.5533V66.0743Z" fill="white"/>
<path d="M23.6005 66.0743H23.5533V76.4597H23.6005V66.0743Z" fill="white"/>
<path d="M23.649 66.0743H23.6018V76.4597H23.649V66.0743Z" fill="white"/>
<path d="M23.6962 66.0743H23.649V76.4597H23.6962V66.0743Z" fill="white"/>
<path d="M23.7434 66.0743H23.6962V76.4597H23.7434V66.0743Z" fill="white"/>
<path d="M23.7905 66.0743H23.7433V76.4597H23.7905V66.0743Z" fill="white"/>
<path d="M23.8378 66.0743H23.7906V76.4597H23.8378V66.0743Z" fill="white"/>
<path d="M23.8862 66.0743H23.839V76.4597H23.8862V66.0743Z" fill="white"/>
<path d="M23.9333 66.0743H23.8861V76.4597H23.9333V66.0743Z" fill="white"/>
<path d="M23.9666 66.0743H23.9335V76.4597H23.9666V66.0743Z" fill="white"/>
</g>
<path d="M79.5732 68.6286C79.8494 68.6286 80.0732 68.4044 80.0732 68.128C80.0732 67.8515 79.8494 67.6273 79.5732 67.6273C79.2971 67.6273 79.0732 67.8515 79.0732 68.128C79.0732 68.4044 79.2971 68.6286 79.5732 68.6286Z" fill="url(#paint4_linear_16_1259)"/>
<path d="M79.5734 70.9388C79.8495 70.9388 80.0734 70.7147 80.0734 70.4382C80.0734 70.1617 79.8495 69.9376 79.5734 69.9376C79.2972 69.9376 79.0734 70.1617 79.0734 70.4382C79.0734 70.7147 79.2972 70.9388 79.5734 70.9388Z" fill="url(#paint5_linear_16_1259)"/>
<path d="M79.5734 73.1699C79.8495 73.1699 80.0734 72.9458 80.0734 72.6693C80.0734 72.3928 79.8495 72.1687 79.5734 72.1687C79.2972 72.1687 79.0734 72.3928 79.0734 72.6693C79.0734 72.9458 79.2972 73.1699 79.5734 73.1699Z" fill="url(#paint6_linear_16_1259)"/>
<path d="M79.5734 75.4342C79.8495 75.4342 80.0734 75.2101 80.0734 74.9336C80.0734 74.6571 79.8495 74.433 79.5734 74.433C79.2972 74.433 79.0734 74.6571 79.0734 74.9336C79.0734 75.2101 79.2972 75.4342 79.5734 75.4342Z" fill="url(#paint7_linear_16_1259)"/>
<path d="M79.5734 77.567C79.8495 77.567 80.0734 77.3429 80.0734 77.0664C80.0734 76.7899 79.8495 76.5658 79.5734 76.5658C79.2972 76.5658 79.0734 76.7899 79.0734 77.0664C79.0734 77.3429 79.2972 77.567 79.5734 77.567Z" fill="url(#paint8_linear_16_1259)"/>
<path d="M14.8978 98.9672L14.8761 100.685C14.857 102.191 13.4386 103.198 11.9323 103.085L5.30352 103.115L0 103.082L0.00637748 90.7389L12.1172 90.7811C13.57 90.7862 14.6019 92.0684 14.5598 93.4527L14.5305 95.2483C14.5203 95.869 14.0955 96.3466 13.6376 96.7617C14.4514 97.3121 14.9067 98.0414 14.8953 98.9672H14.8978ZM11.3966 94.4323C11.431 93.7912 11.1172 93.3748 10.528 93.3748L3.24486 93.3851L3.24997 95.6774L10.403 95.6928C10.7524 95.6928 11.0892 95.5395 11.2359 95.3671C11.4374 95.1296 11.3787 94.7796 11.3966 94.4323ZM11.7461 99.178C11.7295 98.4066 11.3047 98.0401 10.6427 98.0414L3.2691 98.058C3.21808 98.9596 3.15558 99.7399 3.29971 100.597L11.0535 100.557C11.6721 100.555 11.7575 99.6888 11.7473 99.178H11.7461Z" fill="white"/>
<path d="M72.9304 99.7412C72.8003 101.726 71.285 103.164 69.3272 103.081L57.9433 103.088L57.9408 90.7492L69.7404 90.7658C71.5363 90.9382 72.8335 92.2804 72.9113 94.0709L72.9317 99.7399L72.9304 99.7412ZM69.6805 99.4092L69.6715 94.3646C69.5912 93.7657 69.1639 93.3966 68.5606 93.3736L61.1168 93.3838V100.579L68.5606 100.584C69.1971 100.546 69.6537 100.112 69.6792 99.4079L69.6805 99.4092Z" fill="white"/>
<path d="M29.0992 90.7338C30.2076 90.7734 31.1361 90.7772 32.2497 90.7351L32.2101 100.018C32.2025 101.7 30.7522 103.074 29.0953 103.068L20.6745 103.036C18.9679 103.03 17.6656 101.435 17.6618 99.7999L17.635 90.7428C18.7166 90.7658 19.7243 90.776 20.8939 90.7402L20.9079 99.593C20.9079 100.205 21.4551 100.579 22.0074 100.58L27.8772 100.592C28.5596 100.593 29.0545 100.178 29.1081 99.4653L29.0979 90.7338H29.0992Z" fill="white"/>
<path d="M92.5934 96.5523L93.4442 96.6187L91.6202 99.0247L84.8996 99.0809L84.878 103.12L81.7543 103.114C81.915 102.519 81.8601 101.982 81.864 101.385L81.9175 92.8461C81.9252 91.7338 83.267 90.684 84.3627 90.6878L93.4837 90.7287L95.874 90.8347L94.7656 93.1846L85.7861 93.1948C85.2874 93.1948 84.9264 93.5588 84.9201 94.0402L84.8856 96.528L92.5947 96.5548L92.5934 96.5523Z" fill="url(#paint9_linear_16_1259)"/>
<path d="M113.585 97.6186L110.875 100.571L109.389 102.265L108.575 103.173L104.786 103.119C105 102.618 105.413 102.334 105.741 101.959L106.697 100.869C107.361 100.109 108.006 99.3887 108.7 98.6774L110.319 97.0171L109.741 96.3058L108.198 94.6647C107.726 94.1628 107.31 93.6865 106.876 93.1935L104.727 90.7555L108.227 90.6955C108.822 90.6853 109.902 92.3953 111.177 93.5945C111.556 93.9508 111.783 94.523 112.313 94.7477L113.865 93.0773L116.073 90.7466C117.278 90.5346 118.531 90.6815 119.844 90.7338L119.017 91.7504L116.203 94.8014L114.959 96.1142L113.585 97.6186Z" fill="url(#paint10_linear_16_1259)"/>
<path d="M55.775 100.802C55.3171 101.587 54.937 102.283 54.5696 103.088L41.8466 103.083C41.9282 102.758 42.0047 102.491 41.9639 102.142V90.7543L45.1705 90.7492L45.1769 100.791L55.775 100.801V100.802Z" fill="white"/>
<path d="M38.6375 103.069L35.3951 103.09L35.4002 90.7402L38.6349 90.7415L38.6375 103.069Z" fill="white"/>
<path d="M101.56 103.054C100.56 103.272 99.5284 103.178 98.443 103.111L98.4468 90.7198L101.569 90.7415L101.56 103.054Z" fill="url(#paint11_linear_16_1259)"/>
<path d="M116.12 103.178L114.257 101.198C113.782 100.695 113.422 100.087 112.802 99.6275C113.248 99.072 113.755 98.7655 114.04 98.2265C114.188 97.9468 114.45 97.7872 114.76 97.5586L115.904 98.6824L117.88 100.799L120 103.074L116.12 103.178Z" fill="url(#paint12_linear_16_1259)"/>
<path d="M24.7932 112.107L25.422 112.266C25.2906 112.783 25.0534 113.176 24.7116 113.447C24.3697 113.718 23.9514 113.855 23.4565 113.855C22.9616 113.855 22.5292 113.75 22.2078 113.542C21.8863 113.333 21.6427 113.031 21.4756 112.635C21.3085 112.239 21.2244 111.815 21.2244 111.36C21.2244 110.865 21.3188 110.433 21.5075 110.065C21.6963 109.696 21.9654 109.417 22.3136 109.225C22.6618 109.033 23.0458 108.938 23.4654 108.938C23.9399 108.938 24.3404 109.059 24.6631 109.3C24.9858 109.542 25.2128 109.883 25.3404 110.322L24.7218 110.468C24.6121 110.122 24.4514 109.87 24.2422 109.712C24.033 109.553 23.769 109.475 23.4514 109.475C23.0866 109.475 22.7817 109.563 22.5369 109.738C22.292 109.913 22.1198 110.148 22.0203 110.443C21.9208 110.738 21.871 111.042 21.871 111.357C21.871 111.761 21.9297 112.114 22.0471 112.415C22.1644 112.717 22.3481 112.943 22.5955 113.091C22.8442 113.24 23.1121 113.314 23.4016 113.314C23.7537 113.314 24.0509 113.212 24.2958 113.009C24.5394 112.806 24.7052 112.505 24.7907 112.105L24.7932 112.107Z" fill="white"/>
<path d="M28.9232 111.458C28.9232 110.669 29.1349 110.051 29.5584 109.605C29.9819 109.158 30.5278 108.936 31.1974 108.936C31.6362 108.936 32.0303 109.041 32.3824 109.25C32.7344 109.46 33.0023 109.752 33.1872 110.128C33.3721 110.503 33.464 110.928 33.464 111.404C33.464 111.879 33.367 112.317 33.1719 112.697C32.9767 113.078 32.7025 113.365 32.3467 113.562C31.9908 113.759 31.6056 113.856 31.1936 113.856C30.7472 113.856 30.3467 113.747 29.9959 113.531C29.6439 113.315 29.3773 113.02 29.1962 112.646C29.0151 112.272 28.9245 111.876 28.9245 111.46L28.9232 111.458ZM29.5712 111.469C29.5712 112.042 29.7255 112.493 30.0329 112.822C30.3403 113.152 30.7268 113.317 31.1911 113.317C31.6553 113.317 32.0533 113.151 32.3581 112.817C32.6642 112.484 32.816 112.011 32.816 111.4C32.816 111.013 32.751 110.676 32.6196 110.387C32.4895 110.098 32.2982 109.875 32.0469 109.715C31.7956 109.557 31.5125 109.476 31.2 109.476C30.7548 109.476 30.3722 109.63 30.052 109.935C29.7319 110.24 29.5712 110.751 29.5712 111.467V111.469Z" fill="white"/>
<path d="M37.1846 113.774V109.021H37.8287L40.3223 112.752V109.021H40.9243V113.774H40.2802L37.7866 110.038V113.774H37.1846Z" fill="white"/>
<path d="M46.1079 113.774V109.581H44.5442V109.021H48.3069V109.581H46.7368V113.774H46.1079Z" fill="white"/>
<path d="M51.8796 113.774V109.021H53.9842C54.4077 109.021 54.7291 109.063 54.9498 109.148C55.1704 109.234 55.3464 109.384 55.4778 109.6C55.6092 109.816 55.6755 110.055 55.6755 110.317C55.6755 110.654 55.5671 110.939 55.349 111.17C55.1309 111.401 54.7941 111.548 54.3388 111.61C54.5046 111.691 54.6309 111.769 54.7176 111.847C54.9013 112.015 55.0748 112.226 55.2393 112.479L56.0645 113.773H55.2737L54.6449 112.784C54.4612 112.499 54.3107 112.281 54.1921 112.129C54.0735 111.978 53.9676 111.872 53.8732 111.811C53.7789 111.75 53.6832 111.709 53.5863 111.685C53.5148 111.669 53.3988 111.662 53.2368 111.662H52.5085V113.773H51.8796V113.774ZM52.5072 111.119H53.8579C54.1449 111.119 54.3694 111.089 54.5314 111.029C54.6934 110.969 54.8158 110.875 54.9 110.745C54.9842 110.614 55.0263 110.471 55.0263 110.318C55.0263 110.093 54.9447 109.908 54.7814 109.764C54.6181 109.619 54.3605 109.547 54.0084 109.547H52.5059V111.119H52.5072Z" fill="white"/>
<path d="M59.0568 113.774L60.8794 109.021H61.5567L63.4993 113.774H62.7838L62.2302 112.335H60.2455L59.7238 113.774H59.0568ZM60.4266 111.822H62.0363L61.5414 110.506C61.3896 110.106 61.2774 109.778 61.2047 109.52C61.1448 109.825 61.0593 110.128 60.9483 110.428L60.4266 111.822Z" fill="white"/>
<path d="M70.308 112.107L70.9368 112.266C70.8054 112.783 70.5682 113.176 70.2263 113.447C69.8845 113.718 69.4661 113.854 68.9713 113.854C68.4764 113.854 68.044 113.75 67.7225 113.541C67.4011 113.333 67.1575 113.031 66.9904 112.635C66.8233 112.239 66.7391 111.815 66.7391 111.36C66.7391 110.865 66.8335 110.433 67.0223 110.065C67.2111 109.697 67.4802 109.416 67.8284 109.225C68.1766 109.033 68.5605 108.937 68.9802 108.937C69.4547 108.937 69.8552 109.059 70.1779 109.3C70.5006 109.542 70.7276 109.883 70.8552 110.322L70.2366 110.467C70.1269 110.121 69.9661 109.87 69.757 109.711C69.5478 109.553 69.2838 109.475 68.9662 109.475C68.6014 109.475 68.2965 109.563 68.0516 109.738C67.8067 109.913 67.6345 110.148 67.535 110.443C67.4356 110.738 67.3858 111.042 67.3858 111.356C67.3858 111.761 67.4445 112.114 67.5618 112.415C67.6792 112.716 67.8628 112.942 68.1103 113.091C68.3577 113.239 68.6269 113.314 68.9164 113.314C69.2684 113.314 69.5656 113.212 69.8105 113.009C70.0554 112.806 70.22 112.504 70.3054 112.105L70.308 112.107Z" fill="white"/>
<path d="M75.836 113.774V109.581H74.2722V109.021H78.0349V109.581H76.4648V113.774H75.836Z" fill="white"/>
<path d="M81.7045 113.774V109.021H82.3333V113.774H81.7045Z" fill="white"/>
<path d="M86.3524 113.774V109.021H86.9965L89.4901 112.752V109.021H90.0922V113.774H89.4481L86.9544 110.038V113.774H86.3524Z" fill="white"/>
<path d="M96.2885 111.909V111.351L98.2999 111.347V113.111C97.9912 113.358 97.6724 113.543 97.3446 113.667C97.0168 113.79 96.68 113.853 96.3344 113.853C95.8675 113.853 95.4441 113.753 95.0627 113.553C94.6813 113.352 94.3943 113.064 94.1992 112.686C94.004 112.308 93.9071 111.885 93.9071 111.418C93.9071 110.95 94.004 110.524 94.1966 110.123C94.3892 109.722 94.6673 109.424 95.0308 109.229C95.3943 109.033 95.8114 108.936 96.2846 108.936C96.6277 108.936 96.9377 108.992 97.2157 109.104C97.4938 109.215 97.7106 109.37 97.8688 109.568C98.027 109.766 98.1456 110.027 98.2285 110.346L97.6622 110.502C97.5907 110.259 97.5027 110.069 97.3969 109.931C97.291 109.793 97.1405 109.682 96.9441 109.599C96.7476 109.516 96.5295 109.474 96.2897 109.474C96.0027 109.474 95.754 109.517 95.5448 109.605C95.3357 109.694 95.166 109.808 95.0385 109.95C94.9109 110.092 94.8102 110.249 94.7387 110.42C94.6176 110.714 94.5576 111.033 94.5576 111.377C94.5576 111.801 94.6303 112.154 94.7757 112.441C94.9211 112.727 95.1341 112.937 95.4122 113.077C95.6903 113.216 95.9862 113.283 96.2999 113.283C96.5716 113.283 96.8369 113.231 97.0971 113.126C97.3573 113.022 97.5525 112.909 97.6864 112.79V111.905H96.291L96.2885 111.909Z" fill="white"/>
<path d="M26.7547 119.208C26.8606 119.342 26.9142 119.493 26.9142 119.661C26.9142 119.806 26.8772 119.936 26.8019 120.052C26.7267 120.168 26.6182 120.259 26.4779 120.325C26.3364 120.392 26.1718 120.425 25.9843 120.425H24.8491V117.585H25.9307C26.1233 117.585 26.2904 117.618 26.4282 117.683C26.5672 117.748 26.6718 117.836 26.742 117.946C26.8121 118.056 26.8478 118.18 26.8478 118.317C26.8478 118.48 26.8045 118.617 26.7177 118.725C26.631 118.834 26.5136 118.914 26.367 118.967C26.5187 118.993 26.6488 119.074 26.7547 119.208ZM25.3134 118.779H25.8887C26.0404 118.779 26.1603 118.744 26.2458 118.674C26.3312 118.605 26.3746 118.504 26.3746 118.374C26.3746 118.244 26.3312 118.145 26.2458 118.074C26.1603 118.001 26.0404 117.965 25.8887 117.965H25.3134V118.779ZM26.3134 119.931C26.4027 119.854 26.4486 119.748 26.4486 119.612C26.4486 119.475 26.4014 119.362 26.3057 119.281C26.2101 119.199 26.0838 119.158 25.9256 119.158H25.3134V120.044H25.9422C26.1004 120.044 26.2241 120.006 26.3134 119.93V119.931Z" fill="white"/>
<path d="M27.9792 117.586V119.397C27.9792 119.613 28.0354 119.775 28.1489 119.883C28.2611 119.992 28.4193 120.047 28.6208 120.047C28.8223 120.047 28.9831 119.992 29.0966 119.883C29.2088 119.775 29.2662 119.613 29.2662 119.397V117.586H29.7318V119.388C29.7318 119.619 29.6808 119.816 29.5813 119.977C29.4805 120.138 29.3453 120.258 29.1769 120.337C29.0086 120.416 28.8223 120.456 28.6183 120.456C28.4142 120.456 28.228 120.416 28.0609 120.337C27.8938 120.258 27.7611 120.138 27.6629 119.977C27.5647 119.816 27.5162 119.62 27.5162 119.388V117.586H27.9818H27.9792Z" fill="white"/>
<path d="M30.8976 117.586V120.426H30.432V117.586H30.8976Z" fill="white"/>
<path d="M32.0724 120.05H33.0315V120.425H31.6068V117.585H32.0724V120.05Z" fill="white"/>
<path d="M35.238 117.76C35.4651 117.876 35.6411 118.042 35.7648 118.258C35.8886 118.475 35.9511 118.726 35.9511 119.016C35.9511 119.306 35.8886 119.555 35.7648 119.769C35.6411 119.981 35.4651 120.144 35.238 120.256C35.011 120.37 34.7457 120.426 34.4447 120.426H33.5187V117.586H34.4447C34.747 117.586 35.011 117.643 35.238 117.76ZM35.2074 119.776C35.3847 119.596 35.4727 119.343 35.4727 119.016C35.4727 118.689 35.3847 118.429 35.2074 118.244C35.0301 118.059 34.7763 117.965 34.4447 117.965H33.983V120.046H34.4447C34.7763 120.046 35.0314 119.956 35.2074 119.776Z" fill="white"/>
<path d="M39.5008 117.586V117.967H38.7457V120.426H38.2802V117.967H37.5212V117.586H39.5008Z" fill="white"/>
<path d="M40.6334 120.268C40.4114 120.144 40.2354 119.972 40.1066 119.749C39.9778 119.527 39.9127 119.277 39.9127 119C39.9127 118.723 39.9778 118.472 40.1066 118.251C40.2354 118.03 40.4114 117.858 40.6334 117.734C40.8553 117.61 41.0977 117.548 41.3617 117.548C41.6257 117.548 41.8719 117.61 42.0938 117.734C42.3158 117.858 42.4905 118.03 42.618 118.251C42.7456 118.472 42.8094 118.721 42.8094 119C42.8094 119.278 42.7456 119.527 42.618 119.749C42.4905 119.972 42.3158 120.144 42.0938 120.268C41.8719 120.392 41.6283 120.454 41.3617 120.454C41.0951 120.454 40.8553 120.393 40.6334 120.268ZM41.8642 119.921C42.0109 119.835 42.1257 119.712 42.2086 119.553C42.2915 119.393 42.3336 119.209 42.3336 118.998C42.3336 118.788 42.2915 118.605 42.2086 118.447C42.1257 118.288 42.0109 118.167 41.8642 118.083C41.7175 117.998 41.5505 117.956 41.3617 117.956C41.1729 117.956 41.0071 117.998 40.8591 118.083C40.7112 118.167 40.5977 118.288 40.5148 118.447C40.4318 118.605 40.3898 118.789 40.3898 118.998C40.3898 119.208 40.4306 119.393 40.5148 119.553C40.5989 119.712 40.7125 119.835 40.8591 119.921C41.0058 120.006 41.1729 120.05 41.3617 120.05C41.5505 120.05 41.7163 120.006 41.8642 119.921Z" fill="white"/>
<path d="M46.4076 118.84C46.34 118.968 46.2303 119.073 46.0811 119.153C45.9318 119.233 45.7392 119.273 45.5058 119.273H44.9918V120.425H44.5262V117.585H45.5058C45.7239 117.585 45.9076 117.622 46.0594 117.697C46.2099 117.772 46.3234 117.873 46.3987 118.001C46.4739 118.129 46.5109 118.272 46.5109 118.43C46.5109 118.575 46.4765 118.711 46.4089 118.839L46.4076 118.84ZM45.9012 118.772C45.988 118.692 46.0313 118.578 46.0313 118.431C46.0313 118.121 45.8553 117.965 45.5046 117.965H44.9905V118.892H45.5046C45.6818 118.892 45.8132 118.853 45.9 118.772H45.9012Z" fill="white"/>
<path d="M47.5173 117.961V118.795H48.4969V119.176H47.5173V120.047H48.6193V120.428H47.0518V117.583H48.6193V117.964H47.5173V117.961Z" fill="white"/>
<path d="M50.7621 120.426L50.1091 119.29H49.7545V120.426H49.2889V117.586H50.2685C50.4866 117.586 50.6703 117.624 50.8221 117.701C50.9739 117.778 51.0861 117.88 51.1614 118.007C51.2366 118.135 51.2736 118.278 51.2736 118.437C51.2736 118.622 51.22 118.79 51.1129 118.941C51.0058 119.092 50.8399 119.195 50.6167 119.25L51.3183 120.428H50.7634L50.7621 120.426ZM49.7545 118.918H50.2685C50.442 118.918 50.5734 118.875 50.6626 118.788C50.7507 118.701 50.7953 118.583 50.7953 118.437C50.7953 118.29 50.7519 118.175 50.6652 118.092C50.5785 118.009 50.4458 117.967 50.2698 117.967H49.7558V118.919L49.7545 118.918Z" fill="white"/>
<path d="M53.6358 117.586V117.967H52.4317V118.804H53.3705V119.185H52.4317V120.428H51.9662V117.587H53.6358V117.586Z" fill="white"/>
<path d="M54.7314 120.268C54.5095 120.144 54.3334 119.972 54.2046 119.749C54.0758 119.527 54.0107 119.277 54.0107 119C54.0107 118.723 54.0758 118.472 54.2046 118.251C54.3334 118.03 54.5095 117.858 54.7314 117.734C54.9533 117.61 55.1957 117.548 55.4597 117.548C55.7237 117.548 55.9699 117.61 56.1918 117.734C56.4138 117.858 56.5885 118.03 56.7161 118.251C56.8436 118.472 56.9074 118.721 56.9074 119C56.9074 119.278 56.8436 119.527 56.7161 119.749C56.5885 119.972 56.4138 120.144 56.1918 120.268C55.9699 120.392 55.7263 120.454 55.4597 120.454C55.1931 120.454 54.9533 120.393 54.7314 120.268ZM55.9623 119.921C56.1089 119.835 56.2237 119.712 56.3066 119.553C56.3895 119.393 56.4316 119.209 56.4316 118.998C56.4316 118.788 56.3895 118.605 56.3066 118.447C56.2237 118.288 56.1089 118.167 55.9623 118.083C55.8156 117.998 55.6485 117.956 55.4597 117.956C55.2709 117.956 55.1051 117.998 54.9572 118.083C54.8092 118.167 54.6957 118.288 54.6128 118.447C54.5299 118.605 54.4878 118.789 54.4878 118.998C54.4878 119.208 54.5286 119.393 54.6128 119.553C54.697 119.712 54.8105 119.835 54.9572 119.921C55.1038 120.006 55.2709 120.05 55.4597 120.05C55.6485 120.05 55.8143 120.006 55.9623 119.921Z" fill="white"/>
<path d="M58.938 120.426L58.285 119.29H57.9304V120.426H57.4648V117.586H58.4444C58.6625 117.586 58.8462 117.624 58.998 117.701C59.1485 117.778 59.262 117.88 59.3373 118.007C59.4125 118.135 59.4495 118.278 59.4495 118.437C59.4495 118.622 59.3959 118.79 59.2888 118.941C59.1817 119.092 59.0158 119.195 58.7926 119.25L59.4942 120.428H58.9393L58.938 120.426ZM57.9291 118.918H58.4432C58.6179 118.918 58.748 118.875 58.8373 118.788C58.9266 118.701 58.9699 118.583 58.9699 118.437C58.9699 118.29 58.9266 118.175 58.8398 118.092C58.7531 118.009 58.6204 117.967 58.4444 117.967H57.9304V118.919L57.9291 118.918Z" fill="white"/>
<path d="M63.1294 117.586V120.426H62.6638V118.481L61.799 120.426H61.4763L60.6064 118.481V120.426H60.1409V117.586H60.6434L61.6396 119.813L62.6319 117.586H63.1294Z" fill="white"/>
<path d="M64.35 119.866L63.8564 120.993H63.5541L63.8436 119.866H64.35Z" fill="white"/>
<path d="M67.6842 117.586V117.967H66.4801V118.804H67.4188V119.185H66.4801V120.428H66.0145V117.587H67.6842V117.586Z" fill="white"/>
<path d="M68.6804 117.586V120.426H68.2148V117.586H68.6804Z" fill="white"/>
<path d="M70.6931 119.007L71.5745 120.425H71.0515L70.4112 119.396L69.8117 120.425H69.2939L70.1752 119.007L69.29 117.585H69.813L70.4584 118.623L71.063 117.585H71.5808L70.6956 119.007H70.6931Z" fill="white"/>
<path d="M72.6484 117.961V118.795H73.628V119.176H72.6484V120.047H73.7505V120.428H72.1829V117.583H73.7505V117.964H72.6484V117.961Z" fill="white"/>
<path d="M76.1394 117.76C76.3664 117.876 76.5425 118.042 76.6662 118.258C76.7899 118.475 76.8524 118.726 76.8524 119.016C76.8524 119.306 76.7899 119.555 76.6662 119.769C76.5425 119.982 76.3664 120.144 76.1394 120.256C75.9124 120.37 75.6471 120.426 75.3461 120.426H74.42V117.586H75.3461C75.6483 117.586 75.9124 117.643 76.1394 117.76ZM76.1088 119.776C76.2861 119.596 76.3741 119.343 76.3741 119.016C76.3741 118.689 76.2861 118.429 76.1088 118.244C75.9315 118.059 75.6777 117.965 75.3461 117.965H74.8843V120.046H75.3461C75.6777 120.046 75.9328 119.956 76.1088 119.776Z" fill="white"/>
<path d="M80.4022 117.586V117.967H79.6471V120.426H79.1815V117.967H78.4226V117.586H80.4022Z" fill="white"/>
<path d="M81.536 120.268C81.314 120.144 81.138 119.972 81.0092 119.749C80.8804 119.527 80.8153 119.277 80.8153 119C80.8153 118.723 80.8804 118.472 81.0092 118.251C81.138 118.03 81.314 117.858 81.536 117.734C81.7579 117.61 82.0002 117.548 82.2643 117.548C82.5283 117.548 82.7745 117.61 82.9964 117.734C83.2183 117.858 83.3931 118.03 83.5206 118.251C83.6482 118.472 83.712 118.721 83.712 119C83.712 119.278 83.6482 119.527 83.5206 119.749C83.3931 119.972 83.2183 120.144 82.9964 120.268C82.7745 120.392 82.5308 120.454 82.2643 120.454C81.9977 120.454 81.7579 120.393 81.536 120.268ZM82.7655 119.921C82.9122 119.835 83.027 119.712 83.1099 119.553C83.1928 119.393 83.2349 119.209 83.2349 118.998C83.2349 118.788 83.1928 118.605 83.1099 118.447C83.027 118.288 82.9122 118.167 82.7655 118.083C82.6189 117.998 82.4518 117.956 82.263 117.956C82.0742 117.956 81.9084 117.998 81.7604 118.083C81.6138 118.167 81.499 118.288 81.4161 118.447C81.3332 118.605 81.2911 118.789 81.2911 118.998C81.2911 119.208 81.3332 119.393 81.4161 119.553C81.499 119.712 81.6138 119.835 81.7604 119.921C81.9071 120.006 82.0742 120.05 82.263 120.05C82.4518 120.05 82.6176 120.006 82.7655 119.921Z" fill="white"/>
<path d="M85.8932 120.05H86.8523V120.425H85.4276V117.585H85.8932V120.05Z" fill="white"/>
<path d="M89.0475 119.845H87.86L87.6559 120.425H87.1699L88.1865 117.581H88.7248L89.7413 120.425H89.2515L89.0475 119.845ZM88.9174 119.466L88.4556 118.145L87.9901 119.466H88.9161H88.9174Z" fill="white"/>
<path d="M90.7005 120.355C90.5474 120.288 90.4288 120.194 90.3408 120.071C90.2528 119.949 90.2107 119.806 90.2107 119.642H90.7081C90.7183 119.765 90.7668 119.866 90.8535 119.945C90.939 120.024 91.0602 120.064 91.2145 120.064C91.3688 120.064 91.5002 120.025 91.5895 119.947C91.6788 119.869 91.7247 119.77 91.7247 119.647C91.7247 119.551 91.6966 119.475 91.6405 119.415C91.5844 119.355 91.5155 119.309 91.4326 119.276C91.3497 119.242 91.2349 119.208 91.0882 119.17C90.9033 119.121 90.7528 119.071 90.6367 119.02C90.5206 118.97 90.4224 118.891 90.3408 118.785C90.2592 118.679 90.2183 118.537 90.2183 118.36C90.2183 118.196 90.2592 118.053 90.3408 117.931C90.4224 117.808 90.5372 117.714 90.6839 117.649C90.8306 117.583 91.0002 117.55 91.1941 117.55C91.4683 117.55 91.6941 117.619 91.8701 117.757C92.0461 117.895 92.1431 118.083 92.1622 118.323H91.6482C91.6405 118.219 91.5908 118.131 91.5015 118.057C91.4122 117.983 91.2936 117.947 91.1469 117.947C91.0143 117.947 90.9046 117.982 90.8204 118.05C90.7362 118.117 90.6941 118.216 90.6941 118.343C90.6941 118.43 90.7209 118.502 90.7732 118.558C90.8255 118.614 90.8931 118.657 90.9747 118.691C91.0563 118.724 91.1673 118.758 91.3089 118.797C91.4964 118.849 91.6495 118.9 91.7681 118.952C91.8867 119.005 91.9875 119.084 92.0704 119.191C92.1533 119.299 92.1954 119.443 92.1954 119.623C92.1954 119.767 92.1571 119.904 92.0793 120.032C92.0015 120.159 91.8892 120.263 91.74 120.341C91.5921 120.419 91.4173 120.457 91.2158 120.457C91.0257 120.457 90.8535 120.424 90.7018 120.357L90.7005 120.355Z" fill="white"/>
<path d="M94.6762 117.586V117.967H93.9211V120.426H93.4556V117.967H92.6967V117.586H94.6762Z" fill="white"/>
<path d="M18.1326 110.664H4.57532V111.175H18.1326V110.664Z" fill="url(#paint13_linear_16_1259)"/>
<path d="M15.6262 118.425H4.57532V118.936H15.6262V118.425Z" fill="url(#paint14_linear_16_1259)"/>
<path d="M115.426 110.664H101.869V111.175H115.426V110.664Z" fill="url(#paint15_linear_16_1259)"/>
<path d="M115.426 118.425H104.375V118.936H115.426V118.425Z" fill="url(#paint16_linear_16_1259)"/>
<defs>
<linearGradient id="paint0_linear_16_1259" x1="65.9598" y1="4.58604" x2="65.9598" y2="45.9831" gradientUnits="userSpaceOnUse">
<stop stop-color="#AB7423"/>
<stop offset="0.54" stop-color="#EEC061"/>
<stop offset="1" stop-color="#986318"/>
</linearGradient>
<linearGradient id="paint1_linear_16_1259" x1="67.5541" y1="62.2188" x2="102.558" y2="62.2188" gradientUnits="userSpaceOnUse">
<stop stop-color="#AB7423"/>
<stop offset="0.54" stop-color="#EEC061"/>
<stop offset="1" stop-color="#986318"/>
</linearGradient>
<linearGradient id="paint2_linear_16_1259" x1="30.353" y1="58.6263" x2="36.7586" y2="58.6263" gradientUnits="userSpaceOnUse">
<stop stop-color="#AB7423"/>
<stop offset="0.54" stop-color="#EEC061"/>
<stop offset="1" stop-color="#986318"/>
</linearGradient>
<linearGradient id="paint3_linear_16_1259" x1="93.0297" y1="59.3019" x2="107.556" y2="59.3019" gradientUnits="userSpaceOnUse">
<stop stop-color="#AB7423"/>
<stop offset="0.54" stop-color="#EEC061"/>
<stop offset="1" stop-color="#986318"/>
</linearGradient>
<linearGradient id="paint4_linear_16_1259" x1="79.475" y1="66.1983" x2="82.0465" y2="116.822" gradientUnits="userSpaceOnUse">
<stop stop-color="#AB7423"/>
<stop offset="0.54" stop-color="#EEC061"/>
<stop offset="1" stop-color="#986318"/>
</linearGradient>
<linearGradient id="paint5_linear_16_1259" x1="79.3591" y1="66.2047" x2="81.9305" y2="116.828" gradientUnits="userSpaceOnUse">
<stop stop-color="#AB7423"/>
<stop offset="0.54" stop-color="#EEC061"/>
<stop offset="1" stop-color="#986318"/>
</linearGradient>
<linearGradient id="paint6_linear_16_1259" x1="79.2456" y1="66.211" x2="81.817" y2="116.835" gradientUnits="userSpaceOnUse">
<stop stop-color="#AB7423"/>
<stop offset="0.54" stop-color="#EEC061"/>
<stop offset="1" stop-color="#986318"/>
</linearGradient>
<linearGradient id="paint7_linear_16_1259" x1="79.132" y1="66.2162" x2="81.7034" y2="116.84" gradientUnits="userSpaceOnUse">
<stop stop-color="#AB7423"/>
<stop offset="0.54" stop-color="#EEC061"/>
<stop offset="1" stop-color="#986318"/>
</linearGradient>
<linearGradient id="paint8_linear_16_1259" x1="79.0236" y1="66.2213" x2="81.595" y2="116.845" gradientUnits="userSpaceOnUse">
<stop stop-color="#AB7423"/>
<stop offset="0.54" stop-color="#EEC061"/>
<stop offset="1" stop-color="#986318"/>
</linearGradient>
<linearGradient id="paint9_linear_16_1259" x1="115" y1="77.8198" x2="60.0388" y2="111.996" gradientUnits="userSpaceOnUse">
<stop stop-color="#AB7423"/>
<stop offset="0.54" stop-color="#EEC061"/>
<stop offset="1" stop-color="#986318"/>
</linearGradient>
<linearGradient id="paint10_linear_16_1259" x1="121.246" y1="87.8642" x2="66.2835" y2="122.04" gradientUnits="userSpaceOnUse">
<stop stop-color="#AB7423"/>
<stop offset="0.54" stop-color="#EEC061"/>
<stop offset="1" stop-color="#986318"/>
</linearGradient>
<linearGradient id="paint11_linear_16_1259" x1="119.355" y1="84.8234" x2="64.3934" y2="118.999" gradientUnits="userSpaceOnUse">
<stop stop-color="#AB7423"/>
<stop offset="0.54" stop-color="#EEC061"/>
<stop offset="1" stop-color="#986318"/>
</linearGradient>
<linearGradient id="paint12_linear_16_1259" x1="125.746" y1="95.1015" x2="70.7849" y2="129.277" gradientUnits="userSpaceOnUse">
<stop stop-color="#AB7423"/>
<stop offset="0.54" stop-color="#EEC061"/>
<stop offset="1" stop-color="#986318"/>
</linearGradient>
<linearGradient id="paint13_linear_16_1259" x1="4.57532" y1="110.92" x2="18.1326" y2="110.92" gradientUnits="userSpaceOnUse">
<stop stop-color="#AB7423"/>
<stop offset="0.54" stop-color="#EEC061"/>
<stop offset="1" stop-color="#986318"/>
</linearGradient>
<linearGradient id="paint14_linear_16_1259" x1="4.57532" y1="118.681" x2="15.6262" y2="118.681" gradientUnits="userSpaceOnUse">
<stop stop-color="#AB7423"/>
<stop offset="0.54" stop-color="#EEC061"/>
<stop offset="1" stop-color="#986318"/>
</linearGradient>
<linearGradient id="paint15_linear_16_1259" x1="115.426" y1="110.92" x2="101.869" y2="110.92" gradientUnits="userSpaceOnUse">
<stop stop-color="#AB7423"/>
<stop offset="0.54" stop-color="#EEC061"/>
<stop offset="1" stop-color="#986318"/>
</linearGradient>
<linearGradient id="paint16_linear_16_1259" x1="115.426" y1="118.681" x2="104.375" y2="118.681" gradientUnits="userSpaceOnUse">
<stop stop-color="#AB7423"/>
<stop offset="0.54" stop-color="#EEC061"/>
<stop offset="1" stop-color="#986318"/>
</linearGradient>
</defs>
</svg>
