<svg width="119" height="87" viewBox="0 0 119 87" fill="none" xmlns="http://www.w3.org/2000/svg">
<path d="M8.10862 59.4003H14.8407V59.57C14.8407 60.5506 14.7087 63.6432 12.6909 65.642C11.1824 67.1506 9.29663 67.5843 7.48633 67.5843C5.67603 67.5843 3.77145 67.2072 2.16858 65.6043C1.65944 65.0952 0 63.2472 0 59.9471C0 56.6471 1.28229 55.3648 2.14973 54.4974C3.24345 53.366 5.09146 52.2534 7.9389 52.2534C10.7863 52.2534 10.2018 52.4231 11.3332 53.0265C12.2761 53.5168 13.3132 54.3843 14.0864 55.7043L11.5972 57.0431C11.0881 56.0626 10.3338 55.5534 9.8812 55.3083C9.25891 55.0065 8.48576 54.8368 7.8069 54.8368C6.63775 54.8368 5.31774 55.2517 4.4126 56.138C3.58288 56.9489 2.94173 58.3631 2.94173 60.0037C2.94173 61.6443 3.77145 63.134 4.39374 63.7186C5.05374 64.3597 6.09089 64.9632 7.65604 64.9632C9.2212 64.9632 9.73034 64.6992 10.5412 64.0769C11.1069 63.6432 11.6915 62.8889 11.9366 61.8329H8.14633V59.3626L8.10862 59.4003Z" fill="#3EA02C"/>
<path d="M32.4347 59.9283C32.4347 64.3975 29.229 67.5843 24.609 67.5843C19.9889 67.5843 16.7832 64.3975 16.7832 59.9283C16.7832 55.4591 19.9889 52.2534 24.609 52.2534C29.229 52.2534 32.4347 55.4591 32.4347 59.9283ZM29.493 59.9283C29.493 56.9488 27.4753 54.8557 24.609 54.8557C21.7427 54.8557 19.7249 56.9677 19.7249 59.9283C19.7249 62.8889 21.7427 64.982 24.609 64.982C27.4753 64.982 29.493 62.8889 29.493 59.9283Z" fill="#3EA02C"/>
<path d="M37.9425 52.5928V64.7935H42.4682V67.2638H35.0762V52.5928H37.9425Z" fill="#3EA02C"/>
<path d="M52.2334 55.0442H47.3116V58.3254H51.9316V60.7957H47.3116V67.2638H44.4453V52.5928H52.2334V55.0631V55.0442Z" fill="#3EA02C"/>
<path d="M67.0389 55.9306C66.1715 54.7803 65.172 54.6672 64.644 54.6672C63.0978 54.6672 62.6263 55.6289 62.6263 56.3832C62.6263 57.1375 62.7395 57.062 63.0789 57.3638C63.4372 57.7032 63.9086 57.8729 64.8326 58.1935C65.9829 58.5895 67.0578 58.9855 67.7932 59.6643C68.4532 60.2678 69.0566 61.2484 69.0566 62.7381C69.0566 65.6044 66.9823 67.5467 63.9463 67.5467C60.9103 67.5467 59.6469 65.8872 58.8926 64.7747L60.7594 62.9832C61.4572 64.4164 62.8149 64.9444 63.8332 64.9444C64.8515 64.9444 66.096 64.1524 66.096 62.9267C66.096 61.7009 65.9263 61.9838 65.5303 61.6066C64.9835 61.0975 64.0972 60.8146 63.2675 60.5318C62.4943 60.2678 61.5703 59.9095 60.8349 59.2495C60.3446 58.8346 59.6657 58.0238 59.6657 56.5152C59.6657 54.3655 61.1177 52.1969 64.38 52.1969C67.6423 52.1969 67.0389 52.3666 68.5286 53.9129L67.0389 55.874V55.9306Z" fill="#3EA02C"/>
<path d="M80.0473 64.1712H74.1262L72.825 67.2449H69.7324L76.0496 52.574H78.2936L84.4222 67.2449H81.3485L80.0473 64.1712ZM79.2176 61.8518L77.1245 56.5717L75.0313 61.8518H79.2176Z" fill="#3EA02C"/>
<path d="M88.5356 52.5928V61.814C88.5356 62.9266 88.9128 63.6243 89.2333 63.9826C89.6482 64.4917 90.4214 65.0009 91.5716 65.0009C92.7219 65.0009 93.4762 64.4917 93.9099 63.9826C94.2494 63.6054 94.6077 62.9266 94.6077 61.814V52.5928H97.474V61.5689C97.474 62.9643 97.2477 64.3597 96.3802 65.4912C95.3242 66.8678 93.4762 67.6032 91.5905 67.6032C89.7048 67.6032 87.8568 66.8866 86.8008 65.4912C85.9145 64.3597 85.707 62.9643 85.707 61.5689V52.5928H88.5733H88.5356Z" fill="#3EA02C"/>
<path d="M104.64 52.5928C106.695 52.5928 108.468 52.8191 110.09 54.026C111.862 55.3648 112.899 57.4957 112.899 59.9471C112.899 62.3986 111.881 64.4917 109.958 65.8683C108.242 67.0752 106.639 67.2826 104.583 67.2826H100.793V52.6117H104.621L104.64 52.5928ZM103.678 64.7935H104.564C105.3 64.7935 106.865 64.7557 108.147 63.8317C109.316 63.002 109.976 61.4934 109.976 59.9471C109.976 58.4008 109.335 56.9111 108.166 56.0248C106.978 55.1385 105.526 55.0631 104.564 55.0631H103.678V64.8123V64.7935Z" fill="#3EA02C"/>
<path d="M118.425 52.5928V67.2638H115.559V52.5928H118.425Z" fill="#3EA02C"/>
<path d="M78.1993 1.09375C78.7084 1.09375 79.1798 1.15032 79.689 1.16918V16.1984C67.5449 18.5179 58.3614 29.3985 58.3614 42.4666C58.3614 55.5346 58.418 44.3523 58.5123 45.2952C58.4557 45.2952 58.418 45.2763 58.3614 45.2574C54.4203 40.5808 52.0254 34.5088 52.0254 27.8522C52.0254 13.0681 63.7357 1.09375 78.1993 1.09375Z" fill="url(#paint0_linear_2006_89)"/>
<path d="M60.832 44.7672C60.832 44.6729 60.832 44.5786 60.832 44.4843C60.832 32.3025 68.7898 22.0442 79.6893 18.8196V21.9687C79.6893 37.4694 66.2063 43.1266 60.8509 44.7672H60.832Z" fill="url(#paint1_linear_2006_89)"/>
<path d="M58.2844 0H69.6176C65.3181 1.37658 61.4524 3.7903 58.2844 6.92061C55.1164 3.7903 51.2506 1.37658 46.9512 0H58.2844Z" fill="url(#paint2_linear_2006_89)"/>
<path d="M56.6635 8.69322C53.2503 12.6721 50.912 17.5938 50.0257 23.0247C46.4617 19.5739 41.9548 17.1413 36.9199 16.1796V1.15032C37.4102 1.1126 37.9005 1.07489 38.4096 1.07489C45.5188 1.07489 51.968 3.97891 56.6823 8.69322H56.6635Z" fill="url(#paint3_linear_2006_89)"/>
<path d="M49.6109 27.3053C49.6109 27.4938 49.592 27.6635 49.592 27.8333C49.592 33.7733 51.4023 39.5436 54.7023 44.4088C48.8377 42.3911 36.9199 36.5265 36.9199 21.9498V18.8006C41.9548 20.2904 46.3485 23.3075 49.6297 27.3053H49.6109Z" fill="url(#paint4_linear_2006_89)"/>
<path d="M13.879 77.0696C13.9732 77.1073 14.0675 77.1262 14.1807 77.1262C14.2938 77.1262 14.3881 77.1073 14.5012 77.0696C14.5955 77.0319 14.6898 76.9753 14.7464 76.8999C14.803 76.8244 14.8784 76.749 14.9161 76.6547C14.9538 76.5604 14.9727 76.4473 14.9727 76.3341C14.9727 76.221 14.9538 76.1267 14.9161 76.0324C14.8784 75.9381 14.8218 75.8439 14.7464 75.7873C14.671 75.7119 14.5955 75.6553 14.5012 75.6176C14.407 75.5799 14.2938 75.561 14.1807 75.561C13.9544 75.561 13.7847 75.6364 13.615 75.7873C13.4452 75.9381 13.3887 76.1267 13.3887 76.353C13.3887 76.5793 13.4075 76.5604 13.4452 76.6736C13.483 76.7867 13.5395 76.8621 13.615 76.9187C13.6904 76.9941 13.7658 77.0507 13.8601 77.0884L13.879 77.0696Z" fill="#999999"/>
<path d="M15.5772 76.8999C15.6526 76.9753 15.728 77.0319 15.8223 77.0696C15.9166 77.1073 16.0109 77.1262 16.124 77.1262C16.2372 77.1262 16.3315 77.1073 16.4446 77.0696C16.5389 77.0319 16.6332 76.9753 16.6898 76.8999C16.7463 76.8244 16.8218 76.749 16.8595 76.6547C16.8972 76.5604 16.916 76.4473 16.916 76.3341C16.916 76.221 16.8972 76.1267 16.8595 76.0324C16.8218 75.9381 16.7652 75.8439 16.6898 75.7873C16.6143 75.7119 16.5389 75.6553 16.4446 75.6176C16.3503 75.5799 16.2372 75.561 16.124 75.561C15.8978 75.561 15.728 75.6364 15.5583 75.7873C15.3886 75.9381 15.332 76.1267 15.332 76.353C15.332 76.5793 15.3509 76.5604 15.3886 76.6736C15.4263 76.7867 15.4829 76.8621 15.5583 76.9187L15.5772 76.8999Z" fill="#999999"/>
<path d="M22.4417 84.7067C22.3663 84.6313 22.2908 84.5747 22.1966 84.537C22.1023 84.4993 21.9891 84.4804 21.876 84.4804C21.6497 84.4804 21.48 84.5559 21.3103 84.7067C21.1406 84.8576 21.084 85.0462 21.084 85.2724C21.084 85.4987 21.1028 85.4799 21.1406 85.593C21.1783 85.7062 21.2348 85.7816 21.3103 85.8382C21.3857 85.9136 21.4611 85.9702 21.5554 86.0079C21.6497 86.0456 21.744 86.0644 21.8571 86.0644C21.9703 86.0644 22.0646 86.0456 22.1777 86.0079C22.272 85.9702 22.3663 85.9136 22.4229 85.8382C22.4983 85.7627 22.5549 85.6873 22.5926 85.593C22.6303 85.4987 22.6491 85.3856 22.6491 85.2724C22.6491 85.1593 22.6303 85.065 22.5926 84.9707C22.5549 84.8764 22.4983 84.7822 22.4229 84.7256L22.4417 84.7067Z" fill="#999999"/>
<path d="M20.5159 84.7067C20.4405 84.6313 20.3651 84.5747 20.2708 84.537C20.1765 84.4993 20.0633 84.4804 19.9502 84.4804C19.7239 84.4804 19.5542 84.5559 19.3845 84.7067C19.2148 84.8576 19.1582 85.0462 19.1582 85.2724C19.1582 85.4987 19.1771 85.4799 19.2148 85.593C19.2525 85.7062 19.3091 85.7816 19.3845 85.8382C19.4599 85.9136 19.5353 85.9702 19.6296 86.0079C19.7239 86.0456 19.8182 86.0644 19.9313 86.0644C20.0445 86.0644 20.1388 86.0456 20.2519 86.0079C20.3462 85.9702 20.4405 85.9136 20.4971 85.8382C20.5725 85.7627 20.6291 85.6873 20.6668 85.593C20.7045 85.4987 20.7234 85.3856 20.7234 85.2724C20.7234 85.1593 20.7045 85.065 20.6668 84.9707C20.6291 84.8764 20.5725 84.7822 20.4971 84.7256L20.5159 84.7067Z" fill="#999999"/>
<path d="M22.2877 83.6885V77.7296H22.0614C21.7974 77.937 21.59 78.1067 21.4391 78.2953C21.2882 78.465 21.1374 78.6536 21.0243 78.8044C20.9111 78.9553 20.7602 79.1439 20.6094 79.3136C20.4585 79.4833 20.2511 79.653 19.9871 79.8416V80.1244C20.2511 80.3507 20.4397 80.577 20.5528 80.8033C20.666 81.0296 20.7225 81.2559 20.7225 81.4633V82.1233H18.0071C18.0825 81.897 18.1014 81.6896 18.1014 81.4633V76.353H17.8751C17.6111 76.5604 17.4037 76.7301 17.2528 76.9187C17.1019 77.0884 16.9511 77.2581 16.8379 77.4279C16.7059 77.5976 16.5739 77.7673 16.4231 77.937C16.2722 78.1067 16.0648 78.2764 15.8008 78.465V78.7479C16.0082 78.9176 16.1591 79.1062 16.2722 79.2759C16.1402 79.257 16.0082 79.2382 15.8762 79.2382C15.5745 79.2382 15.2728 79.2947 15.0088 79.4079C14.7448 79.521 14.4996 79.6907 14.3111 79.8793C14.1036 80.0867 13.9528 80.313 13.8396 80.5959C13.7265 80.8787 13.6699 81.1616 13.6699 81.4633V83.6885H22.3254H22.2877ZM16.3288 81.9159C16.1968 82.0479 16.0459 82.1045 15.8762 82.1045H15.2162V81.4445C15.2162 81.2559 15.2728 81.105 15.4048 80.9919C15.5368 80.8787 15.6876 80.8033 15.8762 80.8033C16.0648 80.8033 16.2157 80.8599 16.3288 80.9919C16.4419 81.1239 16.5174 81.2747 16.5174 81.4445C16.5174 81.6142 16.4608 81.7839 16.3288 81.897V81.9159Z" fill="#999999"/>
<path d="M46.9358 80.3696C46.7661 80.1999 46.5586 80.049 46.3135 79.9547C46.0872 79.8605 45.8232 79.8039 45.5592 79.8039H29.9454C29.738 79.8039 29.5117 79.7473 29.2854 79.6342C29.0591 79.521 28.8328 79.3325 28.6065 79.0685H28.3237C28.1351 79.3325 27.9654 79.5399 27.7957 79.6907C27.626 79.8416 27.4562 79.9736 27.2865 80.1056C27.1168 80.2376 26.9471 80.3696 26.7774 80.5205C26.6077 80.6713 26.4191 80.8787 26.2117 81.1427V81.369H45.5592C45.6535 81.369 45.7478 81.4067 45.8044 81.4822C45.8798 81.5576 45.8986 81.633 45.8986 81.7462V82.1045H26.7962C26.5888 82.1045 26.3625 82.0479 26.1362 81.9348C25.9099 81.8216 25.6837 81.633 25.4574 81.369H25.1745C24.9859 81.633 24.8162 81.8405 24.6465 81.9913C24.4768 82.1422 24.3071 82.2742 24.1374 82.4062C23.9677 82.5382 23.7979 82.6702 23.6282 82.821C23.4585 82.9719 23.2699 83.1793 23.0625 83.4433V83.6696H47.4826V81.7273C47.4826 81.4633 47.4261 81.2182 47.3318 80.973C47.2375 80.7467 47.0866 80.5393 46.9169 80.3507L46.9358 80.3696Z" fill="#999999"/>
<path d="M71.1507 72.9587H70.9244C70.6604 73.1661 70.4529 73.3359 70.3021 73.5244C70.1512 73.6941 70.0004 73.8639 69.8872 74.0336C69.7552 74.2033 69.6232 74.373 69.4724 74.5427C69.3215 74.7124 69.1141 74.8822 68.8501 75.0707V75.3536C69.1141 75.5799 69.3026 75.8062 69.4158 76.0325C69.5289 76.2587 69.5855 76.485 69.5855 76.6925V82.1045H67.5866V77.7485H67.3603C67.0963 77.9559 66.8889 78.1256 66.7381 78.3142C66.5872 78.4839 66.4363 78.6725 66.3232 78.8233C66.2101 78.9742 66.0592 79.1628 65.9083 79.3325C65.7575 79.5022 65.5501 79.6719 65.286 79.8605V80.1433C65.5501 80.3508 65.7386 80.5959 65.8518 80.8222C65.9649 81.0485 66.0215 81.2748 66.0215 81.4822V82.1233H64.9278V78.0502H64.7015C64.4375 78.2576 64.23 78.4273 64.0792 78.6159C63.9283 78.7856 63.7775 78.9553 63.6643 79.125C63.5323 79.2947 63.4003 79.4645 63.2495 79.6342C63.0986 79.8039 62.8912 79.9736 62.6272 80.1622V80.445C62.8912 80.6713 63.0798 80.8976 63.1929 81.1239C63.306 81.3691 63.3626 81.5765 63.3626 81.7839V82.1233H62.2689V78.3519H62.0426C61.7786 78.5593 61.5712 78.729 61.4203 78.9176C61.2695 79.0873 61.1186 79.257 61.0055 79.4268C60.8735 79.5965 60.7415 79.7662 60.5906 79.9359C60.4397 80.1056 60.2323 80.2753 59.9683 80.4639V80.7468C60.2323 80.9731 60.4209 81.1993 60.534 81.4256C60.6472 81.6519 60.7037 81.8782 60.7037 82.0856V82.1422H58.5917C58.6483 81.9348 58.7049 81.7273 58.7049 81.4822C58.7049 81.237 58.6483 80.8976 58.5352 80.6148C58.422 80.3508 58.2523 80.1056 58.0637 79.8982C57.8563 79.6908 57.63 79.5399 57.3471 79.4268C57.0831 79.3136 56.7814 79.257 56.4797 79.257H53.9528V80.0679C53.9906 80.0679 54.0283 80.0679 54.066 80.1056C54.1037 80.1245 54.1414 80.1622 54.1603 80.1999C54.1791 80.2376 54.198 80.2753 54.2168 80.313C54.2168 80.3508 54.2168 80.3696 54.2168 80.3885V81.4822C54.2168 81.7085 54.2546 81.9348 54.33 82.1422H52.8214V81.4822C52.8214 81.1805 52.7648 80.8788 52.6517 80.6148C52.5385 80.3508 52.3688 80.1056 52.1803 79.8982C51.9728 79.6908 51.7465 79.5399 51.4637 79.4268C51.1997 79.3136 50.898 79.257 50.5962 79.257C50.2945 79.257 49.9928 79.3136 49.7288 79.4268C49.4648 79.5399 49.2197 79.7096 49.0122 79.8982C48.8048 80.1056 48.654 80.3319 48.5408 80.6148C48.4277 80.8976 48.3711 81.1805 48.3711 81.4822C48.3711 81.7839 48.4277 82.0856 48.5408 82.3496C48.654 82.6136 48.8237 82.8588 49.0122 83.0473C49.2197 83.2548 49.446 83.4056 49.7288 83.5188C49.9928 83.6319 50.2945 83.6885 50.5962 83.6885H51.2374C51.2374 83.9336 51.1808 84.1788 51.0488 84.4428C50.9168 84.7068 50.7471 84.9519 50.5397 85.1971C50.3322 85.4422 50.0871 85.6685 49.8042 85.8571C49.5402 86.0645 49.2574 86.2154 48.9745 86.3285V86.6679C49.5402 86.6679 50.0682 86.5925 50.5397 86.4228C51.0111 86.2531 51.426 86.0456 51.7654 85.7628C52.1048 85.4799 52.3688 85.1594 52.5574 84.8011C52.746 84.4428 52.8403 84.0656 52.8403 83.6696H71.2261V72.9587H71.1507ZM51.1808 82.1045H50.5397C50.3511 82.1045 50.2002 82.0479 50.0871 81.9159C49.9551 81.7839 49.8985 81.6331 49.8985 81.4633C49.8985 81.2936 49.9551 81.1239 50.0871 81.0108C50.2191 80.8976 50.37 80.8222 50.5397 80.8222C50.7094 80.8222 50.8791 80.8788 50.9923 81.0108C51.1054 81.1428 51.1808 81.2936 51.1808 81.4633V82.1233V82.1045ZM56.8569 81.9159C56.7249 82.0479 56.574 82.1045 56.4043 82.1045C56.2346 82.1045 56.0649 82.0479 55.9517 81.9159C55.8197 81.7839 55.7631 81.6331 55.7631 81.4633V80.8222H56.4231C56.6117 80.8222 56.7626 80.8788 56.8757 81.0108C57.0077 81.1428 57.0643 81.2936 57.0643 81.4633C57.0643 81.6331 57.0077 81.8028 56.8757 81.9159H56.8569Z" fill="#999999"/>
<path d="M73.035 73.5244C72.8842 73.6941 72.7333 73.8639 72.6202 74.0336C72.4882 74.2033 72.3562 74.373 72.2053 74.5427C72.0545 74.7124 71.847 74.8822 71.583 75.0707V75.3536C71.847 75.5799 72.0356 75.8062 72.1487 76.0325C72.2619 76.2587 72.3184 76.485 72.3184 76.6925V83.4811C72.3184 83.8016 72.2996 84.1033 72.243 84.3673C72.1865 84.6314 72.111 84.8954 71.9979 85.1216C71.8847 85.3479 71.7339 85.5554 71.5265 85.7439C71.319 85.9325 71.0739 86.1022 70.791 86.2719V86.6679C71.2813 86.6679 71.7339 86.5925 72.111 86.4416C72.507 86.2908 72.8276 86.0645 73.0916 85.7816C73.3556 85.4988 73.563 85.1594 73.695 84.7634C73.827 84.3674 73.9025 83.9336 73.9025 83.4622V72.9587H73.6762C73.4122 73.1661 73.2047 73.3359 73.0539 73.5244H73.035Z" fill="#999999"/>
<path d="M84.5186 78.0879C84.594 78.1633 84.6694 78.2199 84.7637 78.2576C84.858 78.2953 84.9523 78.3142 85.0654 78.3142C85.1786 78.3142 85.2729 78.2953 85.386 78.2576C85.4803 78.2199 85.5746 78.1633 85.6312 78.0879C85.7066 78.0125 85.7632 77.9371 85.8009 77.8428C85.8386 77.7485 85.8575 77.6353 85.8575 77.5222C85.8575 77.4091 85.8386 77.3148 85.8009 77.2205C85.7632 77.1262 85.7066 77.0319 85.6312 76.9753C85.5557 76.9188 85.4803 76.8433 85.386 76.8056C85.2917 76.7679 85.1786 76.7491 85.0654 76.7491C84.8392 76.7491 84.6694 76.8245 84.4997 76.9753C84.33 77.1262 84.2734 77.3148 84.2734 77.5411C84.2734 77.7673 84.2923 77.7485 84.33 77.8616C84.3677 77.9748 84.4243 78.0502 84.4997 78.1068L84.5186 78.0879Z" fill="#999999"/>
<path d="M90.1195 73.5244C89.9686 73.6941 89.8177 73.8639 89.7046 74.0336C89.5726 74.2033 89.4406 74.373 89.2897 74.5427C89.1389 74.7124 88.9315 74.8822 88.6675 75.0707V75.3536C88.9315 75.5799 89.12 75.8062 89.2332 76.0325C89.3463 76.2587 89.4029 76.485 89.4029 76.6925V82.1045H87.4229V81.4445C87.4229 81.1428 87.3663 80.841 87.2532 80.577C87.14 80.313 86.9703 80.0679 86.7817 79.8605C86.5743 79.653 86.348 79.5022 86.0652 79.389C85.7823 79.2759 85.4994 79.2193 85.1977 79.2193C84.896 79.2193 84.5943 79.2759 84.3303 79.389C84.0663 79.5022 83.8211 79.6719 83.6326 79.8605C83.4251 80.0679 83.2743 80.2942 83.1611 80.577C83.048 80.8599 82.9914 81.1428 82.9914 81.4445C82.9914 81.7462 83.0103 81.8782 83.0668 82.1045H78.0697C77.8622 82.1045 77.636 82.0479 77.4097 81.9348C77.1834 81.8216 76.9382 81.6331 76.7308 81.3691H76.448C76.2594 81.6331 76.0897 81.8405 75.92 81.9913C75.7502 82.1422 75.5805 82.2742 75.4108 82.4062C75.2411 82.5382 75.0714 82.6702 74.9017 82.8211C74.7319 82.9719 74.5434 83.1793 74.3359 83.4433V83.6696H91.0058V72.9587H90.7795C90.5155 73.1661 90.308 73.3359 90.1572 73.5244H90.1195ZM85.82 82.1045H85.1789C84.9903 82.1045 84.8394 82.0479 84.7263 81.9159C84.5943 81.7839 84.5377 81.6331 84.5377 81.4633C84.5377 81.2936 84.5943 81.1239 84.7263 81.0108C84.8583 80.8788 85.0091 80.8222 85.1789 80.8222C85.3486 80.8222 85.5183 80.8788 85.6314 81.0108C85.7446 81.1428 85.82 81.2936 85.82 81.4633V82.1233V82.1045Z" fill="#999999"/>
<path d="M100.338 84.7067C100.263 84.6313 100.187 84.5747 100.093 84.537C99.9988 84.4993 99.8856 84.4804 99.7725 84.4804C99.5462 84.4804 99.3765 84.5559 99.2068 84.7067C99.037 84.8576 98.9805 85.0462 98.9805 85.2724C98.9805 85.4987 98.9993 85.4799 99.037 85.593C99.0748 85.7062 99.1313 85.7816 99.2068 85.8382C99.2822 85.9136 99.3576 85.9702 99.4519 86.0079C99.5462 86.0456 99.6405 86.0644 99.7536 86.0644C99.8668 86.0644 99.961 86.0456 100.074 86.0079C100.168 85.9702 100.263 85.9136 100.319 85.8382C100.395 85.7627 100.451 85.6873 100.489 85.593C100.527 85.4987 100.546 85.3856 100.546 85.2724C100.546 85.1593 100.527 85.065 100.489 84.9707C100.451 84.8764 100.395 84.7822 100.319 84.7256L100.338 84.7067Z" fill="#999999"/>
<path d="M104.471 82.1044C103.679 82.1044 102.925 81.9536 102.227 81.633C101.529 81.3313 100.888 80.8976 100.36 80.3507C99.832 79.8038 99.3794 79.1815 99.04 78.4461C98.7006 77.7107 98.512 76.9375 98.4554 76.089L96.9657 77.1827C97.0411 77.673 97.1731 78.1632 97.3429 78.6158C97.5126 79.0873 97.7389 79.521 97.984 79.9358C98.2291 80.3507 98.5309 80.7278 98.8514 81.105C99.172 81.4633 99.5303 81.8027 99.9074 82.0856H96.2491V81.4256C96.2491 81.1238 96.1926 80.8221 96.0794 80.5581C95.9663 80.2941 95.7966 80.049 95.608 79.8415C95.4006 79.6341 95.1743 79.4833 94.8914 79.3701C94.6274 79.257 94.3257 79.2004 94.024 79.2004C93.7223 79.2004 93.4205 79.257 93.1565 79.3701C92.8925 79.4833 92.6474 79.653 92.44 79.8415C92.2325 80.049 92.0817 80.2753 91.9685 80.5581C91.8554 80.841 91.7988 81.1238 91.7988 81.4256C91.7988 81.7273 91.8554 82.029 91.9685 82.293C92.0817 82.557 92.2514 82.8021 92.44 82.9907C92.6474 83.1981 92.8737 83.349 93.1565 83.4621C93.4205 83.5753 93.7223 83.6319 94.024 83.6319H94.6651C94.6651 83.877 94.6086 84.1221 94.4765 84.3862C94.3445 84.6502 94.1748 84.8953 93.9674 85.1404C93.76 85.3856 93.5148 85.6119 93.232 85.8004C92.968 85.989 92.6851 86.1587 92.4023 86.2719V86.6113C92.968 86.6113 93.496 86.5359 93.9674 86.3662C94.4388 86.1964 94.8537 85.989 95.1931 85.7062C95.5326 85.4233 95.7966 85.1216 95.9851 84.7444C96.1737 84.3673 96.268 84.009 96.268 83.613H104.452L105.734 82.029H104.509L104.471 82.1044ZM94.6463 82.1044H94.0051C93.8165 82.1044 93.6657 82.0478 93.5526 81.9158C93.4205 81.7838 93.364 81.633 93.364 81.4633C93.364 81.2936 93.4205 81.1238 93.5526 81.0107C93.6846 80.8976 93.8354 80.8221 94.0051 80.8221C94.1748 80.8221 94.3446 80.8787 94.4577 81.0107C94.5708 81.1427 94.6463 81.2936 94.6463 81.4633V82.1233V82.1044Z" fill="#999999"/>
<defs>
<linearGradient id="paint0_linear_2006_89" x1="79.6701" y1="23.1945" x2="52.0065" y2="23.1945" gradientUnits="userSpaceOnUse">
<stop offset="0.4" stop-color="#144920"/>
<stop offset="1" stop-color="#3EA02C"/>
</linearGradient>
<linearGradient id="paint1_linear_2006_89" x1="79.6704" y1="31.7745" x2="60.8132" y2="31.7745" gradientUnits="userSpaceOnUse">
<stop offset="0.4" stop-color="#144920"/>
<stop offset="1" stop-color="#3EA02C"/>
</linearGradient>
<linearGradient id="paint2_linear_2006_89" x1="69.6176" y1="3.46973" x2="46.9512" y2="3.46973" gradientUnits="userSpaceOnUse">
<stop offset="0.4" stop-color="#144920"/>
<stop offset="1" stop-color="#3EA02C"/>
</linearGradient>
<linearGradient id="paint3_linear_2006_89" x1="56.6446" y1="12.0687" x2="36.9011" y2="12.0687" gradientUnits="userSpaceOnUse">
<stop offset="0.4" stop-color="#144920"/>
<stop offset="1" stop-color="#3EA02C"/>
</linearGradient>
<linearGradient id="paint4_linear_2006_89" x1="54.6835" y1="31.6047" x2="36.9011" y2="31.6047" gradientUnits="userSpaceOnUse">
<stop offset="0.4" stop-color="#144920"/>
<stop offset="1" stop-color="#3EA02C"/>
</linearGradient>
</defs>
</svg>
